<?xml version="1.0" standalone="no"?>
<!DOCTYPE svg PUBLIC "-//W3C//DTD SVG 20010904//EN"
 "http://www.w3.org/TR/2001/REC-SVG-20010904/DTD/svg10.dtd">
<svg version="1.0" xmlns="http://www.w3.org/2000/svg"
 width="1068.000000pt" height="1175.000000pt" viewBox="0 0 1068.000000 1175.000000"
 preserveAspectRatio="xMidYMid meet">

<g transform="translate(0.000000,1175.000000) scale(0.100000,-0.100000)"
fill="#000000" stroke="none">
<path d="M9255 11670 c-11 -5 -48 -9 -82 -9 -34 -1 -65 -6 -68 -11 -12 -19 6
-49 43 -71 20 -13 39 -26 42 -30 3 -3 19 -14 37 -22 35 -18 73 -66 73 -92 0
-19 -47 -65 -66 -65 -38 0 -12 -63 31 -74 13 -3 90 -11 171 -16 163 -11 200
-21 323 -86 78 -42 101 -62 195 -166 14 -16 35 -28 49 -28 13 0 34 -11 47 -25
13 -14 29 -25 36 -25 7 0 14 -6 17 -12 3 -9 11 -6 24 10 11 12 28 22 37 22 9
0 16 5 16 10 0 6 9 10 20 10 11 0 20 5 20 10 0 6 14 10 30 10 17 0 30 -4 30
-10 0 -5 9 -10 20 -10 11 0 20 -4 20 -10 0 -5 17 -10 38 -10 26 0 42 -6 52
-20 8 -12 26 -20 42 -20 21 0 28 -5 28 -20 0 -15 7 -20 25 -20 14 0 25 -4 25
-10 0 -5 7 -10 15 -10 8 0 15 -4 15 -10 0 -5 9 -10 20 -10 11 0 20 -4 20 -10
0 -5 9 -10 20 -10 11 0 20 5 20 10 0 6 9 10 20 10 19 0 20 7 20 255 0 140 -3
255 -8 255 -4 0 -23 -5 -42 -10 -88 -26 -211 -39 -268 -29 -102 18 -143 39
-223 116 -42 39 -88 75 -102 78 -16 4 -39 -1 -65 -14 -22 -11 -64 -23 -94 -27
-48 -5 -61 -1 -133 34 -62 30 -97 41 -155 46 -103 10 -132 20 -202 77 -62 49
-90 58 -133 39z"/>
<path d="M2395 11549 c-143 -3 -274 -10 -291 -14 l-31 -7 -2 -96 c-1 -54 -6
-113 -11 -132 -4 -19 -13 -75 -19 -125 -7 -49 -16 -124 -21 -165 -6 -41 -12
-154 -15 -250 -4 -129 -9 -180 -20 -197 -8 -12 -15 -29 -15 -38 0 -9 -10 -20
-22 -24 -20 -8 -25 -4 -39 27 l-16 37 -7 -44 c-5 -35 -17 -54 -51 -88 -41 -40
-49 -43 -97 -43 -59 0 -98 -8 -98 -20 0 -4 69 -7 153 -7 83 1 190 -3 237 -9
47 -6 90 -9 95 -7 6 2 26 29 45 60 45 72 164 174 254 218 120 58 191 67 436
55 116 -5 218 -13 228 -18 9 -5 44 -14 77 -21 33 -7 85 -23 115 -36 30 -13 66
-26 80 -30 14 -5 74 -27 133 -51 92 -37 111 -42 129 -31 16 9 22 9 25 0 3 -7
10 -13 16 -13 22 0 242 -185 387 -325 189 -183 360 -373 360 -403 0 -5 6 -15
14 -21 42 -35 274 -470 371 -697 166 -384 294 -795 374 -1204 56 -283 110
-795 90 -848 -37 -97 -182 -350 -211 -368 -4 -3 8 30 28 73 67 146 136 363
133 420 0 10 -11 -22 -24 -72 -54 -208 -115 -351 -218 -515 -38 -60 -130 -181
-167 -221 -78 -83 -78 -88 0 -9 53 52 140 150 194 218 54 67 102 122 107 122
5 0 11 -11 15 -24 7 -30 -67 -176 -151 -298 -31 -44 -54 -83 -51 -85 2 -3 39
44 81 104 88 125 189 323 239 471 l34 104 8 -47 c6 -45 1 -263 -13 -461 l-6
-92 -77 -41 c-79 -42 -182 -84 -260 -106 -25 -7 -37 -14 -28 -14 28 -2 172 47
263 89 l84 39 6 -33 c5 -26 -15 -222 -40 -386 -5 -34 -5 -34 5 -5 14 46 58
364 71 520 15 184 15 620 0 815 -45 571 -169 1107 -386 1665 -121 312 -371
800 -498 975 -128 175 -473 527 -712 725 -38 32 -92 79 -120 104 -27 26 -60
53 -72 61 -11 8 -48 36 -81 62 -33 25 -70 51 -82 58 -12 6 -38 26 -58 45 -21
18 -75 58 -122 89 -47 30 -90 60 -96 65 -6 5 -53 33 -104 63 -164 94 -201 121
-212 149 -4 9 -30 30 -60 46 -29 17 -60 38 -67 47 -7 9 -24 16 -37 16 -15 0
-24 6 -24 15 0 8 -20 25 -45 37 -43 21 -46 25 -43 57 l3 35 124 18 c68 9 129
22 135 28 7 7 2 10 -16 10 -15 0 -32 1 -40 3 -7 2 -130 0 -273 -4z m510 -528
c130 -63 305 -164 305 -178 0 -16 -33 -21 -197 -28 -148 -7 -173 -4 -152 21
16 20 -6 27 -104 33 -17 1 -18 10 -15 104 l3 103 35 -6 c19 -4 76 -26 125 -49z
m2286 -4268 c-10 -27 -24 -65 -30 -85 -14 -42 -26 -48 -36 -19 -4 12 9 42 37
85 23 36 43 66 45 66 1 0 -6 -21 -16 -47z"/>
<path d="M3446 11541 c18 -17 78 -31 128 -30 l51 1 -40 19 c-40 18 -159 28
-139 10z"/>
<path d="M5140 11181 c14 -4 39 -15 57 -24 18 -10 34 -13 37 -8 9 14 44 1 49
-17 2 -10 30 -26 69 -40 78 -26 108 -28 108 -6 0 11 6 15 20 11 16 -4 20 0 20
23 0 25 -4 28 -42 34 -80 11 -153 18 -213 22 -33 1 -76 5 -95 8 -27 5 -30 4
-10 -3z"/>
<path d="M8010 11099 c-58 -49 -110 -83 -215 -139 -178 -95 -225 -129 -368
-274 -101 -102 -117 -107 -209 -60 -53 27 -178 76 -178 71 0 -9 95 -71 149
-98 34 -16 61 -35 61 -42 0 -7 -16 -37 -36 -67 -20 -30 -43 -73 -52 -95 -8
-22 -19 -44 -24 -49 -24 -28 16 -56 81 -56 21 0 60 -4 87 -9 27 -5 87 -12 134
-16 127 -10 426 -54 455 -67 14 -6 25 -15 25 -19 0 -15 -36 -19 -168 -19 -269
0 -630 -37 -664 -67 -12 -10 -15 -25 -12 -51 11 -77 13 -81 77 -117 34 -20 82
-53 107 -74 25 -20 70 -55 100 -78 30 -23 64 -50 75 -60 31 -29 205 -168 370
-295 83 -64 201 -159 264 -210 63 -51 156 -127 207 -168 428 -349 668 -550
673 -564 2 -6 9 -14 15 -18 7 -5 7 -10 1 -17 -15 -14 -69 8 -151 61 -74 49
-154 88 -309 153 -49 21 -115 48 -145 61 -156 65 -265 105 -595 216 -115 39
-228 79 -250 90 -22 12 -80 63 -130 114 -50 52 -94 94 -98 94 -18 0 -1 -24 71
-97 42 -44 84 -93 92 -109 8 -16 57 -72 110 -125 52 -53 127 -136 165 -185 39
-49 106 -125 150 -169 44 -45 111 -117 150 -161 38 -43 86 -96 106 -116 20
-21 35 -38 33 -38 -1 0 33 -34 76 -75 43 -41 82 -75 85 -75 10 0 -35 71 -75
116 -19 23 -42 54 -50 70 -8 16 -18 31 -22 34 -4 3 -3 12 1 19 7 11 10 9 16
-8 3 -12 15 -21 26 -21 12 0 19 -7 19 -20 0 -11 6 -20 14 -20 8 0 21 -3 29 -6
8 -3 22 2 31 12 16 15 18 15 35 -5 10 -12 26 -21 35 -21 9 0 16 -4 16 -10 0
-5 18 -10 40 -10 35 0 40 3 41 23 0 12 3 16 6 10 6 -15 33 -17 33 -3 0 6 14
10 30 10 17 0 30 5 30 10 0 6 5 10 10 10 6 0 10 -13 10 -30 0 -19 5 -30 14
-30 25 0 46 12 46 26 0 17 16 18 26 2 4 -6 2 -14 -4 -16 -23 -7 -12 -28 21
-40 44 -16 55 -15 31 2 -10 8 -16 17 -12 21 4 4 38 -18 75 -49 37 -32 77 -64
88 -72 11 -8 34 -26 50 -40 17 -14 64 -52 105 -86 94 -76 176 -153 248 -237
68 -77 78 -88 118 -132 17 -19 46 -54 65 -78 35 -47 199 -253 224 -283 8 -9
30 -41 50 -70 94 -138 221 -264 232 -230 3 6 19 12 36 12 35 0 199 40 207 51
13 18 161 41 280 43 47 1 94 7 105 13 11 5 32 13 48 17 l27 6 0 495 c0 470 -1
495 -18 495 -10 0 -22 4 -27 8 -18 16 -200 90 -295 121 -135 43 -307 78 -440
92 -63 6 -122 14 -130 19 -8 4 -17 26 -20 51 -6 49 -28 90 -109 198 -108 145
-317 345 -461 441 -36 24 -95 71 -133 103 -58 51 -69 66 -83 116 -9 31 -25 78
-37 104 -20 47 -20 51 -4 145 41 250 43 341 18 937 -10 245 -22 316 -67 386
-17 28 -31 39 -49 39 -34 0 -168 -73 -240 -130 -65 -52 -183 -178 -259 -277
-50 -66 -80 -80 -89 -40 -3 12 -8 81 -12 152 -13 290 -35 405 -97 530 -44 87
-61 93 -118 44z m-292 -2243 c17 -4 34 -12 37 -17 4 -5 14 -9 23 -9 24 0 156
-55 219 -91 35 -20 53 -37 53 -50 0 -10 4 -19 9 -19 5 0 13 -9 16 -20 3 -11
12 -26 19 -33 7 -6 19 -26 27 -42 10 -20 23 -31 41 -33 14 -2 29 -9 31 -16 4
-10 -2 -12 -26 -6 -49 11 -87 32 -87 46 0 8 -19 16 -47 20 -54 8 -125 37 -143
59 -7 8 -17 12 -22 9 -11 -7 -198 178 -198 194 0 6 -7 12 -15 16 -8 3 -15 11
-15 17 0 7 8 6 23 -4 12 -8 37 -18 55 -21z m612 -506 c0 -5 -7 -7 -15 -4 -8 4
-15 8 -15 10 0 2 7 4 15 4 8 0 15 -4 15 -10z m320 -90 c0 -5 -2 -10 -4 -10 -3
0 -8 5 -11 10 -3 6 -1 10 4 10 6 0 11 -4 11 -10z"/>
<path d="M5560 11111 c0 -5 14 -11 31 -15 48 -9 55 -7 33 9 -21 16 -64 20 -64
6z"/>
<path d="M5715 11080 c-3 -6 4 -11 17 -11 13 -1 33 -3 46 -4 33 -3 13 11 -25
18 -18 4 -35 2 -38 -3z"/>
<path d="M6886 10672 c62 -54 116 -94 120 -89 3 3 -12 18 -33 33 -21 16 -44
37 -51 46 -7 10 -21 18 -30 18 -9 0 -12 -3 -6 -8z"/>
<path d="M3900 10547 c0 -6 216 -180 270 -216 19 -14 37 -27 40 -31 5 -5 91
-70 151 -112 13 -10 74 -54 134 -99 61 -45 144 -104 185 -131 41 -28 84 -58
95 -67 41 -37 648 -447 855 -579 30 -19 91 -58 135 -87 71 -46 175 -111 224
-140 34 -21 319 -190 391 -233 70 -42 215 -125 355 -202 33 -18 96 -56 140
-84 105 -68 280 -178 303 -191 93 -53 231 -150 242 -170 7 -14 17 -25 22 -25
4 0 8 -7 8 -16 0 -8 11 -30 25 -48 50 -65 122 -266 179 -497 50 -204 67 -326
73 -544 7 -257 -12 -420 -73 -633 -63 -217 -76 -233 -44 -57 29 163 32 576 6
755 -20 132 -59 327 -69 336 -10 10 -8 -31 3 -86 48 -234 61 -743 27 -980 -38
-255 -84 -455 -153 -655 -25 -71 -47 -139 -50 -150 -7 -28 37 65 77 165 l34
85 8 -50 c27 -164 82 -420 116 -546 37 -134 142 -453 189 -575 29 -76 97 -207
110 -212 6 -2 -12 54 -40 125 -27 70 -59 153 -70 183 -11 30 -24 64 -28 75 -5
11 -12 36 -15 55 -4 19 -16 55 -27 79 -12 24 -22 63 -22 86 -1 24 -4 38 -8 32
-8 -13 -9 -9 -32 63 -7 25 -17 53 -21 63 -4 10 -3 17 4 17 6 0 11 -7 11 -15 0
-8 6 -13 13 -11 6 1 9 1 5 -1 -5 -3 -8 -14 -8 -25 0 -20 1 -20 20 2 20 23 22
23 48 8 15 -8 54 -30 87 -48 78 -42 141 -91 172 -132 13 -18 26 -32 29 -30 2
2 10 1 17 -1 9 -4 9 -6 0 -6 -21 -2 -15 -30 17 -77 17 -24 28 -44 25 -44 -4 0
3 -12 14 -26 11 -14 27 -49 37 -77 9 -29 32 -82 50 -119 19 -37 34 -74 34 -83
0 -8 6 -33 12 -55 14 -44 35 -52 58 -20 8 11 22 20 31 20 10 0 20 6 22 13 4 8
18 -1 41 -25 20 -21 38 -38 41 -38 8 0 6 39 -4 58 -5 9 -19 40 -32 67 -26 59
-27 61 -92 185 -27 52 -57 106 -67 120 -10 14 -37 61 -60 105 -24 44 -51 92
-62 107 -10 14 -18 28 -18 31 0 11 -228 381 -276 448 -19 25 -31 48 -28 51 10
11 -29 76 -42 71 -8 -3 -14 2 -14 11 0 9 -5 16 -11 16 -22 0 -54 47 -50 73 0
4 -5 7 -13 7 -7 0 -16 9 -19 20 -4 17 -1 19 21 14 l27 -6 -25 21 c-16 12 -27
16 -31 9 -8 -13 -26 -3 -40 24 -8 15 -8 19 0 14 6 -4 11 -2 11 3 0 6 -6 11
-14 11 -8 0 -23 11 -34 25 -22 27 -19 64 10 120 43 84 104 262 137 405 48 205
56 282 56 580 0 293 -8 396 -46 579 -11 52 -17 101 -14 109 3 8 -2 23 -11 33
-9 9 -14 26 -11 36 4 15 5 14 6 -4 0 -12 10 -24 21 -28 16 -5 18 -12 13 -37
l-6 -31 32 23 c26 20 33 22 44 10 10 -10 9 -11 -2 -5 -10 5 -12 4 -7 -4 4 -6
12 -8 18 -5 5 3 26 -11 46 -33 21 -21 54 -47 74 -56 21 -10 41 -23 45 -30 8
-12 30 -29 150 -120 58 -45 83 -56 83 -39 0 10 -208 213 -345 336 -60 55 -113
109 -117 120 -3 13 -6 15 -7 6 -1 -8 -12 8 -25 35 -12 28 -31 56 -40 64 -19
16 -46 63 -46 81 0 12 32 13 45 1 9 -7 51 -30 265 -143 19 -10 58 -41 87 -70
44 -44 54 -49 67 -38 9 7 16 18 16 25 0 20 -47 54 -92 66 -22 6 -45 15 -52 20
-14 13 -76 50 -136 82 -25 13 -144 84 -265 157 -121 73 -229 138 -240 144
-141 81 -641 421 -852 581 -147 111 -165 123 -113 76 25 -22 106 -87 181 -143
75 -57 133 -104 128 -106 -15 -6 -431 236 -769 446 -332 207 -918 600 -1205
810 -434 317 -486 354 -595 428 -47 32 -94 66 -105 75 -29 24 -75 52 -75 46z
m3654 -2412 c3 -8 1 -15 -3 -15 -5 0 -11 7 -15 15 -3 8 -1 15 3 15 5 0 11 -7
15 -15z m16 -40 c0 -8 -2 -15 -4 -15 -2 0 -6 7 -10 15 -3 8 -1 15 4 15 6 0 10
-7 10 -15z m0 -2255 c15 -12 110 -149 110 -158 0 -6 3 -12 8 -14 15 -6 122
-157 122 -172 0 -5 10 -23 23 -40 41 -55 73 -112 54 -97 -15 12 -17 11 -17 -2
0 -9 9 -19 20 -22 33 -11 51 -34 44 -61 -6 -25 10 -34 20 -11 3 6 3 0 0 -15
-4 -18 -2 -28 5 -28 7 0 11 -14 9 -35 -1 -22 4 -41 15 -52 23 -23 27 -14 18
30 -5 20 -8 37 -6 37 4 0 55 -91 55 -97 0 -9 -65 10 -81 23 -8 7 -32 16 -52
18 -37 5 -184 83 -225 120 -12 11 -22 27 -21 36 1 8 0 31 -1 50 l-2 35 -9 -30
c-6 -23 -7 -18 -4 23 2 32 0 52 -7 52 -5 0 -8 -7 -4 -15 3 -8 1 -15 -5 -15 -7
0 -9 -19 -5 -52 l5 -53 -20 60 c-11 33 -22 76 -23 95 -2 19 -8 47 -14 62 -6
14 -13 46 -16 70 -3 23 -11 77 -17 118 -7 41 -13 92 -13 113 -1 20 -4 37 -8
37 -5 0 -8 15 -8 33 l0 32 22 -35 c12 -19 25 -37 28 -40z m187 -172 c-3 -8 -6
-5 -6 6 -1 11 2 17 5 13 3 -3 4 -12 1 -19z m513 -1028 c0 -5 -4 -10 -10 -10
-5 0 -10 5 -10 10 0 6 5 10 10 10 6 0 10 -4 10 -10z"/>
<path d="M7552 5790 c0 -14 2 -19 5 -12 2 6 2 18 0 25 -3 6 -5 1 -5 -13z"/>
<path d="M7571 5643 c11 -34 19 -42 19 -20 0 7 -7 22 -15 33 -13 17 -14 16 -4
-13z"/>
<path d="M7582 5570 c0 -14 2 -19 5 -12 2 6 2 18 0 25 -3 6 -5 1 -5 -13z"/>
<path d="M7600 5525 c0 -8 9 -15 20 -15 11 0 20 7 20 15 0 8 -9 15 -20 15 -11
0 -20 -7 -20 -15z"/>
<path d="M7610 5420 c0 -5 5 -10 10 -10 6 0 10 5 10 10 0 6 -4 10 -10 10 -5 0
-10 -4 -10 -10z"/>
<path d="M7841 5374 c-10 -12 -10 -19 -2 -27 8 -8 11 -7 11 6 0 9 5 17 10 17
6 0 10 5 10 10 0 14 -13 12 -29 -6z"/>
<path d="M757 10243 c-9 -8 -9 -56 -1 -77 3 -9 12 -16 18 -16 16 0 56 42 56
59 0 8 7 11 18 7 12 -4 10 0 -7 14 -22 19 -71 27 -84 13z"/>
<path d="M6560 10020 c-14 -5 -56 -14 -95 -21 -38 -6 -76 -14 -82 -16 -22 -9
-3 -23 30 -23 51 0 93 -16 137 -51 56 -45 77 -46 44 -3 -30 39 -27 84 5 84 21
0 44 23 34 33 -8 9 -41 7 -73 -3z"/>
<path d="M3181 9968 c20 -18 61 -53 90 -78 112 -93 334 -326 392 -410 17 -25
34 -47 37 -50 8 -5 140 -203 158 -235 6 -11 12 -16 12 -10 0 10 -45 87 -118
200 -127 196 -461 545 -577 602 -29 14 -29 13 6 -19z"/>
<path d="M2510 9942 c0 -7 20 -47 45 -88 185 -304 288 -594 336 -944 17 -123
17 -578 0 -730 -16 -147 -67 -546 -86 -670 -22 -145 -32 -192 -42 -199 -19
-12 -33 -50 -33 -88 0 -27 3 -34 10 -23 15 25 21 5 11 -41 -5 -24 -12 -70 -16
-102 -4 -32 -8 -57 -11 -55 -19 20 -8 466 21 881 16 223 19 360 5 237 -53
-459 -73 -1068 -50 -1463 16 -265 46 -554 57 -544 2 3 -3 91 -11 197 -26 318
-17 583 29 845 l16 90 82 84 c45 47 91 94 103 105 101 102 352 366 329 346
-16 -13 -110 -103 -208 -200 -98 -96 -179 -176 -181 -177 -1 -2 -3 4 -3 12 0
8 4 15 8 15 5 0 5 7 2 17 -4 10 -2 14 4 10 7 -5 8 4 3 27 -9 40 3 63 83 166
28 36 42 58 32 50 -10 -8 -65 -77 -122 -153 -57 -76 -103 -132 -103 -125 0 7
13 110 30 228 86 626 85 620 85 962 0 174 3 314 6 310 20 -23 266 -332 324
-407 38 -49 72 -92 75 -95 3 -3 49 -58 103 -123 92 -113 105 -136 121 -222 6
-29 3 -32 -128 -109 -74 -44 -144 -88 -157 -99 l-24 -19 26 15 c14 9 73 43
130 78 132 79 166 94 166 73 0 -8 -12 -21 -27 -29 -15 -8 -33 -21 -40 -31 -8
-9 3 -5 24 10 21 14 42 24 45 21 27 -16 82 -431 92 -690 5 -109 18 193 19 428
0 147 4 267 9 267 4 0 50 -46 102 -102 180 -196 373 -390 377 -378 2 6 -61 78
-140 158 -79 81 -191 200 -250 264 l-106 116 -12 104 c-30 257 -102 569 -183
799 -46 130 -97 252 -104 246 -2 -2 7 -28 21 -58 63 -143 163 -489 205 -709
43 -224 72 -549 70 -785 l-1 -140 -13 105 c-58 483 -198 940 -431 1404 -83
166 -124 239 -130 233 -3 -2 11 -32 31 -66 35 -63 74 -146 74 -158 -1 -3 3 -9
8 -12 4 -3 29 -52 54 -108 35 -76 44 -104 35 -113 -8 -8 -7 -10 4 -5 11 4 25
-22 58 -109 24 -63 41 -119 38 -125 -3 -5 -3 -11 1 -13 17 -7 53 -101 48 -122
-5 -17 -4 -18 4 -6 9 13 11 12 12 -5 1 -11 1 -26 0 -32 -1 -7 3 -13 10 -13 6
0 9 -6 6 -14 -3 -7 0 -19 6 -25 9 -9 8 -14 -3 -21 -18 -11 -35 13 -26 37 5 13
4 13 -8 4 -11 -9 -24 1 -67 56 -30 37 -56 70 -59 73 -4 3 -56 70 -116 149
-135 178 -253 349 -260 379 -4 12 -9 22 -13 22 -12 0 -42 71 -35 82 4 6 3 8
-3 5 -14 -9 -56 129 -49 161 4 16 3 22 -2 15 -5 -8 -18 19 -37 75 -16 48 -42
115 -58 150 -15 35 -25 67 -22 72 3 4 1 10 -3 12 -5 1 -26 38 -47 81 -20 43
-61 112 -89 154 -28 42 -59 88 -68 102 -10 14 -18 20 -18 13z m1000 -1677 c14
-19 14 -19 -2 -6 -10 7 -18 18 -18 24 0 6 1 8 3 6 1 -2 9 -13 17 -24z m-763
-1027 c-3 -7 -5 -2 -5 12 0 14 2 19 5 13 2 -7 2 -19 0 -25z"/>
<path d="M972 9660 c-35 -47 -189 -351 -197 -390 -4 -19 -12 -44 -18 -55 -20
-36 -59 -148 -101 -290 -15 -49 -31 -104 -36 -121 -13 -40 -13 -121 -1 -109 6
6 12 23 15 38 8 48 27 97 35 93 4 -3 6 7 3 23 -2 17 2 32 12 40 9 8 16 27 16
44 0 17 8 49 19 71 10 23 29 75 44 116 55 165 151 371 190 414 30 32 65 132
51 146 -7 7 -17 0 -32 -20z"/>
<path d="M4900 9435 c0 -5 5 -17 10 -25 5 -8 10 -10 10 -5 0 6 -5 17 -10 25
-5 8 -10 11 -10 5z"/>
<path d="M4921 9385 c0 -5 9 -28 20 -50 10 -22 16 -29 13 -15 -7 28 -33 80
-33 65z"/>
<path d="M3075 9290 c9 -16 18 -30 21 -30 2 0 -2 14 -11 30 -9 17 -18 30 -21
30 -2 0 2 -13 11 -30z"/>
<path d="M4965 9273 c34 -85 64 -170 105 -298 121 -376 172 -589 234 -970 50
-304 69 -410 78 -420 4 -5 6 63 4 150 -3 157 -18 277 -57 462 -10 51 -18 96
-17 100 0 5 -6 25 -15 45 -10 21 -17 42 -17 48 0 6 -9 29 -20 52 -10 22 -33
99 -49 172 -17 72 -35 147 -40 166 l-10 35 19 -25 c11 -14 24 -29 28 -35 4 -5
19 -26 32 -45 14 -19 28 -37 31 -40 4 -3 46 -66 94 -140 48 -74 96 -148 107
-163 16 -24 17 -31 6 -45 -12 -15 -11 -16 4 -4 15 12 20 8 43 -28 14 -23 29
-49 33 -58 3 -9 28 -49 54 -88 26 -39 48 -74 48 -78 0 -4 9 -19 20 -33 11 -14
17 -30 13 -37 -3 -6 -3 -8 2 -4 11 11 35 -39 29 -60 -5 -14 -4 -15 5 -2 9 13
11 12 11 -3 0 -10 3 -16 8 -13 4 2 12 -7 19 -20 8 -18 8 -23 0 -18 -7 3 -1 -4
12 -15 13 -12 19 -21 15 -21 -5 0 -4 -4 1 -8 19 -13 46 -62 40 -73 -4 -5 -1
-8 7 -7 7 2 12 -3 10 -9 -1 -7 2 -13 7 -13 5 0 19 -20 31 -45 12 -25 26 -48
31 -51 6 -3 7 -15 4 -27 -4 -14 -3 -17 2 -10 6 9 16 -2 33 -35 14 -26 27 -49
31 -52 3 -3 15 -21 27 -41 l22 -36 -49 -114 c-55 -128 -139 -299 -147 -299 -3
0 -2 5 2 12 4 7 3 8 -5 4 -6 -4 -9 -12 -5 -17 6 -11 -35 -101 -48 -107 -4 -2
-16 -22 -27 -45 -21 -47 -67 -102 -73 -90 -3 4 -3 2 -1 -6 5 -20 -50 -102 -64
-96 -7 2 -14 -1 -14 -8 -1 -7 -2 -19 -3 -27 0 -8 -8 -15 -16 -15 -8 -1 -14 -6
-13 -11 1 -6 -12 -26 -28 -45 -28 -31 -31 -25 -5 12 6 8 -1 2 -16 -15 -15 -16
-25 -33 -22 -37 5 -8 -34 -49 -47 -49 -8 0 -29 -55 -29 -76 0 -11 5 -11 25 -2
14 6 25 15 25 19 0 4 9 10 19 14 11 3 36 22 55 43 20 20 36 31 36 25 0 -7 -8
-17 -17 -23 -11 -7 -12 -10 -4 -7 8 2 19 12 25 22 6 11 19 26 29 33 10 8 29
26 43 40 17 19 27 23 32 15 5 -8 13 -9 22 -3 13 8 12 10 -2 10 -10 0 -18 1
-18 3 0 2 33 38 73 80 70 73 74 76 95 61 13 -9 22 -11 22 -5 0 6 -5 11 -11 11
-5 0 -7 5 -3 12 4 7 3 8 -4 4 -20 -12 -13 7 14 39 14 17 24 23 22 15 -2 -8 -7
-18 -12 -21 -4 -4 -3 -10 3 -13 11 -7 12 -4 15 33 1 24 71 113 81 103 5 -4 5
-1 1 5 -11 19 42 83 62 76 13 -4 14 -3 4 5 -11 7 -5 26 30 91 25 44 48 78 53
73 4 -4 6 0 3 9 -4 9 -3 21 1 27 22 36 133 -855 171 -1373 47 -655 40 -1557
-17 -2133 -3 -34 -7 -61 -9 -59 -2 1 -8 160 -15 352 -18 557 -25 560 -21 10 4
-507 -8 -824 -38 -1010 -6 -33 -14 -96 -19 -140 -13 -113 -51 -337 -61 -356
-5 -8 -11 -33 -13 -55 -10 -79 -31 -178 -35 -162 -5 25 -43 23 -49 -2 -3 -11
-10 -20 -15 -20 -6 0 -8 -11 -4 -24 4 -16 0 -29 -13 -40 -17 -16 -18 -14 -25
30 -3 26 -6 95 -7 153 0 58 -6 174 -13 256 -12 150 -12 150 -20 80 -17 -166
-25 -201 -18 -85 12 193 6 506 -12 685 -32 318 -91 754 -132 976 -13 73 -14
107 -5 226 14 176 14 722 1 964 -16 281 -65 748 -77 735 -2 -2 3 -71 11 -152
66 -636 74 -1371 20 -1879 -16 -158 -75 -567 -81 -561 -2 1 1 93 7 202 18 354
11 606 -26 1009 -25 279 -75 505 -209 945 -52 172 -64 201 -65 157 0 -16 22
-101 50 -190 175 -572 226 -874 237 -1407 l6 -276 -129 -126 c-205 -199 -418
-381 -681 -582 -57 -43 -103 -80 -103 -83 0 -3 6 -1 13 5 6 5 71 53 142 106
206 153 352 267 444 350 72 65 186 173 240 228 31 32 59 58 63 58 9 0 3 -136
-18 -431 -8 -113 -14 -217 -13 -230 1 -35 61 254 124 601 43 239 38 235 67 50
15 -91 37 -241 49 -333 l21 -168 -23 -26 c-39 -41 -319 -278 -421 -355 -112
-86 -285 -201 -351 -234 l-47 -25 -73 69 c-69 65 -174 145 -227 172 -23 12
-24 12 -11 -4 8 -9 12 -19 9 -22 -3 -3 -88 -47 -189 -99 -101 -52 -181 -95
-176 -95 4 0 44 19 90 41 45 23 133 64 196 91 l115 49 50 -35 c28 -20 82 -63
120 -97 66 -61 68 -63 62 -101 -9 -56 15 -95 72 -120 74 -32 79 -39 36 -54
-21 -7 -60 -19 -88 -25 -28 -7 -53 -14 -56 -14 -34 -10 -236 -108 -293 -143
-69 -42 -33 -33 74 17 98 47 376 141 416 141 41 0 230 -223 220 -260 -3 -13
-1 -17 10 -13 12 5 14 1 8 -18 -4 -16 -3 -20 3 -11 7 10 14 4 29 -25 11 -21
18 -44 15 -52 -2 -8 -1 -11 4 -8 20 12 133 -272 134 -336 0 -41 -23 -157 -32
-157 -5 0 -8 -9 -8 -20 0 -28 -23 -100 -32 -100 -4 0 -11 -18 -14 -41 -5 -30
-13 -44 -31 -52 -15 -6 -19 -13 -12 -17 16 -11 -11 -50 -36 -51 -11 -1 -31 -3
-45 -5 -14 -2 -74 -11 -135 -19 -148 -19 -252 -38 -261 -47 -4 -5 -15 -8 -24
-8 -22 0 -135 -36 -158 -50 -15 -10 -15 -10 3 -6 11 3 103 21 205 41 211 42
415 63 575 59 159 -3 373 -13 426 -19 52 -6 60 1 93 84 9 23 32 64 51 88 32
41 35 52 35 110 0 119 -58 306 -109 350 -23 19 -28 43 -10 43 15 0 114 -67
208 -142 40 -32 79 -58 85 -58 6 0 18 24 28 53 60 189 213 637 267 782 67 178
117 372 136 528 4 27 8 47 11 45 10 -11 53 -212 64 -298 18 -153 28 -167 49
-67 31 153 162 410 302 595 52 69 62 65 28 -12 -34 -77 -16 -74 24 4 146 284
245 441 390 623 44 54 77 104 74 111 -3 7 -50 52 -104 99 -126 109 -408 396
-547 557 -214 247 -196 220 -196 301 0 75 7 102 23 92 7 -4 8 0 2 13 -11 22
-18 424 -9 424 4 0 14 -8 23 -18 9 -10 39 -31 67 -46 27 -15 64 -39 81 -54 35
-31 146 -239 136 -256 -3 -6 -3 -8 2 -4 11 10 77 -101 79 -134 1 -15 5 -30 9
-35 5 -4 5 1 1 11 -5 14 -4 17 4 12 7 -4 12 -12 12 -17 0 -10 44 -83 91 -151
11 -15 19 -29 19 -32 0 -5 143 -214 193 -282 20 -27 51 -69 69 -93 33 -44 75
-91 83 -91 2 0 -13 24 -33 54 -20 29 -77 111 -126 182 -187 271 -314 488 -486
834 -182 363 -233 503 -256 695 -23 195 -24 255 -4 255 15 0 16 8 8 62 -5 37
-4 94 2 142 13 102 13 96 -10 96 -13 0 -20 7 -20 20 0 11 -7 20 -15 20 -13 0
-19 19 -18 58 1 17 -14 15 -25 -3 -7 -13 -10 -12 -22 9 -10 20 -10 28 -1 40 7
8 16 36 21 63 6 40 8 42 9 15 0 -18 -5 -48 -13 -66 -8 -20 -10 -39 -5 -47 7
-12 9 -11 9 2 0 8 9 25 20 37 13 14 16 23 9 28 -7 4 -9 22 -6 45 3 24 1 38 -6
36 -6 -1 -15 31 -21 75 -7 42 -14 80 -18 83 -12 12 -2 -119 11 -143 7 -13 8
-22 2 -22 -6 0 -8 -12 -5 -29 4 -19 0 -38 -10 -53 -16 -23 -16 -23 -10 11 6
27 4 32 -6 26 -10 -6 -12 -4 -6 10 4 10 2 21 -4 25 -6 3 -11 34 -13 67 -1 34
-5 57 -8 51 -3 -5 -16 30 -27 79 -20 82 -48 186 -66 243 -15 46 41 -45 106
-174 93 -182 98 -194 91 -213 -4 -10 -3 -14 5 -9 14 8 32 -25 35 -63 1 -16 5
-27 10 -24 10 6 29 -47 23 -64 -3 -7 -1 -23 5 -35 8 -21 9 -20 4 5 -3 16 -2
26 3 23 12 -7 37 -96 33 -119 -1 -11 7 -26 19 -34 15 -10 19 -21 14 -35 -3
-12 -2 -18 4 -15 5 4 16 -15 25 -41 9 -26 21 -62 29 -79 9 -24 9 -36 1 -44 -7
-7 -9 -3 -5 17 3 19 2 25 -7 19 -7 -4 -10 -9 -7 -12 8 -9 -18 -31 -31 -26 -17
7 -16 24 2 59 18 34 19 60 4 70 -7 4 -9 0 -5 -13 3 -11 -1 -28 -9 -39 -15 -18
-15 -18 -8 0 4 13 3 17 -5 12 -7 -4 -9 10 -5 49 4 38 2 55 -6 55 -6 0 -11 -2
-11 -4 0 -2 -4 -26 -10 -55 -10 -52 -5 -85 11 -75 9 5 13 -9 10 -34 -1 -7 7
-29 18 -48 12 -19 21 -42 21 -51 0 -10 6 -13 16 -9 11 4 14 1 9 -13 -6 -19 17
-86 60 -176 13 -27 24 -44 25 -37 0 7 5 10 11 6 6 -3 8 -17 5 -30 -7 -27 2
-74 14 -74 5 0 11 17 13 38 l4 37 2 -40 c2 -31 4 -35 10 -20 6 15 10 7 15 -32
3 -28 13 -64 21 -80 8 -15 15 -36 15 -45 0 -9 4 -27 9 -40 8 -21 33 -130 46
-203 10 -56 54 -220 54 -205 2 43 -68 404 -102 530 -158 579 -378 1115 -624
1525 -49 83 -109 187 -133 233 -75 146 -58 91 47 -152 71 -165 190 -574 247
-852 55 -268 98 -629 116 -984 12 -245 11 -750 -3 -750 -5 0 -7 20 -5 45 2 25
0 45 -4 45 -5 0 -8 16 -8 36 0 80 -55 367 -111 584 -75 287 -236 730 -349 960
-103 209 -416 783 -534 980 -28 47 -55 93 -61 103 -69 122 -339 541 -502 779
-166 241 -207 312 -263 451 -29 70 -54 127 -57 127 -3 0 -2 -8 2 -17z m343
-1073 l0 -25 -8 25 c-4 14 -8 36 -8 50 l0 25 8 -25 c4 -14 8 -36 8 -50z m37
-200 c4 -19 4 -32 0 -28 -9 9 -35 146 -34 178 1 22 14 -34 34 -150z m15 -115
c0 -19 -2 -35 -4 -35 -2 0 -6 16 -8 35 -2 19 0 35 4 35 4 0 8 -16 8 -35z m761
-597 c9 -23 5 -38 -32 -117 -23 -50 -46 -91 -51 -91 -5 0 -7 -4 -4 -9 3 -5 -2
-19 -12 -32 -10 -13 -22 -31 -26 -39 -10 -23 -28 -50 -64 -103 -29 -42 -36
-46 -50 -35 -15 11 -15 11 -5 -3 10 -13 10 -19 -3 -35 -11 -14 -14 -15 -11 -3
3 9 -1 16 -8 16 -7 0 -10 -8 -8 -18 6 -21 -64 -112 -78 -103 -5 3 -8 2 -7 -3
4 -11 -42 -57 -65 -66 -10 -4 -16 -11 -12 -16 7 -13 -32 -34 -47 -25 -7 5 -8
3 -3 -5 4 -7 -1 -20 -13 -31 -15 -14 -22 -16 -25 -7 -4 7 -6 6 -6 -4 -1 -15
-23 -38 -66 -68 -11 -7 -5 0 13 18 18 17 29 31 25 31 -3 0 4 11 17 25 12 13
27 23 32 22 6 -1 12 5 13 14 5 28 37 69 48 62 6 -3 7 -1 3 6 -4 6 13 40 42 79
26 37 66 100 86 139 21 40 42 70 47 67 5 -3 6 2 3 10 -4 10 -1 16 7 16 7 0 10
3 6 6 -3 3 15 47 41 98 25 50 45 95 44 100 -2 5 5 6 14 2 13 -5 14 -3 6 7 -8
9 -7 21 3 42 20 45 42 96 60 140 l16 40 29 -50 c16 -28 34 -62 41 -77z m136
-273 c7 -11 26 -44 43 -74 l31 -53 -24 -27 c-31 -33 -47 -64 -46 -88 0 -14 2
-15 6 -3 13 34 65 100 74 94 17 -10 96 -185 199 -444 74 -186 210 -674 210
-755 0 -30 -14 -71 -49 -141 -57 -116 -112 -174 -217 -227 -120 -60 -111 -64
-118 60 -6 107 -9 231 -7 266 0 10 25 44 54 75 28 31 45 51 35 44 -9 -7 -18
-9 -21 -5 -4 7 10 69 27 118 4 11 -2 4 -13 -15 -11 -19 -27 -58 -35 -86 -14
-44 -56 -103 -56 -78 -1 132 -56 718 -96 1024 -31 235 -43 352 -36 363 4 8 9
2 39 -48z m510 -97 c-3 -8 -6 -5 -6 6 -1 11 2 17 5 13 3 -3 4 -12 1 -19z m33
15 c0 -5 -5 -15 -10 -23 -8 -12 -10 -11 -10 8 0 12 5 22 10 22 6 0 10 -3 10
-7z m0 -104 c0 -11 -4 -17 -10 -14 -5 3 -10 13 -10 21 0 8 5 14 10 14 6 0 10
-9 10 -21z m33 -189 c6 -74 -7 -53 -18 30 -5 36 -4 52 3 45 5 -5 12 -39 15
-75z m27 -27 c0 -44 -5 -41 -14 10 -5 27 -4 37 3 32 6 -3 11 -22 11 -42z m199
-48 c0 -5 -4 -3 -9 5 -5 8 -9 22 -9 30 0 16 17 -16 18 -35z m-4 -35 c9 -17 11
-30 5 -30 -5 0 -10 7 -10 15 0 8 -4 15 -10 15 -5 0 -10 -8 -10 -17 0 -14 -2
-15 -12 -4 -10 11 -10 14 0 18 6 3 12 11 12 19 0 22 8 17 25 -16z m1 -82 c4
-24 9 -37 12 -29 3 10 8 7 18 -10 l13 -24 1 25 c1 19 5 14 16 -20 17 -55 17
-50 2 -50 -23 0 -55 44 -70 98 -9 28 -12 52 -8 52 5 0 12 -19 16 -42z m44 2
c0 -5 -5 -10 -11 -10 -5 0 -7 5 -4 10 3 6 8 10 11 10 2 0 4 -4 4 -10z m17
-182 c-3 -8 -6 -5 -6 6 -1 11 2 17 5 13 3 -3 4 -12 1 -19z m-169 -350 c44 -95
62 -138 60 -146 -1 -4 12 -29 30 -56 40 -62 40 -72 2 -49 -17 10 -28 23 -25
31 2 7 0 10 -5 7 -11 -7 -46 14 -49 30 -2 6 -5 12 -8 15 -4 3 -3 -1 1 -7 4 -7
2 -13 -3 -13 -6 0 -11 5 -11 10 0 6 -5 10 -11 10 -6 0 -17 7 -25 15 -11 11
-14 43 -13 147 1 117 2 129 14 103 7 -17 26 -60 43 -97z m-169 -374 c17 -97
52 -289 56 -311 9 -40 -9 -25 -65 54 -30 42 -59 81 -65 88 -28 31 -32 50 -18
84 21 49 75 143 80 138 2 -3 8 -26 12 -53z m-64 -216 c27 -40 52 -75 55 -78 3
-3 20 -24 38 -47 32 -41 33 -46 45 -190 11 -139 12 -144 18 -83 4 36 7 91 8
123 l1 59 98 -113 c53 -61 98 -117 100 -124 3 -13 -75 -126 -167 -240 -31 -39
-65 -83 -76 -99 -11 -15 -29 -38 -40 -51 -11 -13 -28 -35 -38 -50 -10 -14 -23
-22 -29 -19 -7 4 -8 2 -4 -4 9 -15 -64 -103 -77 -95 -6 3 -7 1 -4 -4 4 -6 -1
-19 -11 -30 -9 -11 -39 -46 -67 -79 -48 -56 -130 -147 -188 -209 l-28 -30 6
55 c12 119 25 541 25 853 l0 328 31 17 c92 51 203 126 226 152 13 17 26 30 27
30 1 0 25 -33 51 -72z m-1068 -1770 c-3 -7 -5 -2 -5 12 0 14 2 19 5 13 2 -7 2
-19 0 -25z m-572 -818 c3 -6 -1 -7 -9 -4 -18 7 -21 14 -7 14 6 0 13 -4 16 -10z
m842 -287 c-3 -10 -5 -2 -5 17 0 19 2 27 5 18 2 -10 2 -26 0 -35z m-350 -345
c-3 -8 -6 -5 -6 6 -1 11 2 17 5 13 3 -3 4 -12 1 -19z m453 -8 c0 -5 -4 -10
-10 -10 -5 0 -10 5 -10 10 0 6 5 10 10 10 6 0 10 -4 10 -10z m-410 -570 c0 -5
-5 -10 -11 -10 -5 0 -7 5 -4 10 3 6 8 10 11 10 2 0 4 -4 4 -10z m-40 -44 c0
-3 -4 -8 -10 -11 -5 -3 -10 -1 -10 4 0 6 5 11 10 11 6 0 10 -2 10 -4z"/>
<path d="M6032 7112 c-11 -25 -11 -25 4 -10 9 9 15 21 13 27 -2 6 -10 -2 -17
-17z"/>
<path d="M5782 6780 c-12 -12 -22 -24 -22 -27 0 -4 11 4 25 17 23 22 29 30 22
30 -2 0 -13 -9 -25 -20z"/>
<path d="M5794 6758 l-29 -33 33 29 c30 28 37 36 29 36 -2 0 -16 -15 -33 -32z"/>
<path d="M5726 6743 c-6 -14 -5 -15 5 -6 7 7 10 15 7 18 -3 3 -9 -2 -12 -12z"/>
<path d="M5656 6633 c-6 -14 -5 -15 5 -6 7 7 10 15 7 18 -3 3 -9 -2 -12 -12z"/>
<path d="M6400 6364 c0 -6 17 -26 38 -45 l37 -34 -35 40 c-19 22 -36 42 -37
44 -2 2 -3 0 -3 -5z"/>
<path d="M6475 6270 c3 -5 8 -10 11 -10 2 0 4 5 4 10 0 6 -5 10 -11 10 -5 0
-7 -4 -4 -10z"/>
<path d="M6556 5993 c-6 -14 -5 -15 5 -6 7 7 10 15 7 18 -3 3 -9 -2 -12 -12z"/>
<path d="M7071 6394 c0 -11 3 -14 6 -6 3 7 2 16 -1 19 -3 4 -6 -2 -5 -13z"/>
<path d="M6962 5830 c0 -14 2 -19 5 -12 2 6 2 18 0 25 -3 6 -5 1 -5 -13z"/>
<path d="M910 9220 c0 -41 -63 -173 -100 -210 -3 -3 -16 -25 -29 -50 -13 -25
-33 -56 -43 -69 -10 -13 -18 -32 -18 -42 0 -11 -4 -19 -10 -19 -5 0 -14 -18
-20 -40 -6 -22 -14 -40 -18 -40 -5 0 -14 -17 -21 -37 -8 -21 -26 -64 -42 -96
-15 -32 -33 -75 -39 -95 -6 -20 -15 -46 -20 -57 -5 -11 -19 -54 -30 -95 -58
-200 -64 -269 -10 -103 42 131 242 546 294 613 7 8 18 27 26 43 30 59 38 19
19 -88 -13 -74 -13 -549 1 -730 24 -312 77 -684 145 -1020 57 -281 84 -580 70
-770 l-7 -98 -20 44 c-90 198 -193 551 -238 814 -25 148 -50 335 -51 389 -1
23 -4 32 -6 21 -8 -30 15 -253 43 -415 44 -259 132 -568 228 -800 40 -98 41
-146 6 -309 -18 -88 -21 -133 -5 -79 4 13 23 55 41 95 19 39 34 77 34 85 1 8
6 7 15 -6 8 -10 12 -23 9 -28 -3 -4 2 -15 11 -24 9 -10 13 -24 10 -38 -4 -14
-3 -17 3 -8 7 11 11 11 19 0 19 -25 24 -38 14 -38 -5 0 -12 8 -14 18 -3 10 -5
6 -6 -11 -1 -17 3 -26 9 -22 5 3 10 0 10 -7 0 -21 57 -127 64 -120 4 3 4 -1 1
-9 -3 -9 1 -22 10 -29 8 -7 15 -19 15 -26 0 -17 20 -19 20 -1 0 6 5 4 11 -6 8
-13 7 -22 -3 -34 -9 -12 -9 -15 0 -9 7 4 12 1 12 -8 0 -9 16 -38 35 -65 19
-26 35 -53 35 -58 0 -5 14 -22 31 -39 29 -27 31 -27 24 -6 -5 16 -3 22 7 20 7
-2 12 4 10 12 -1 8 11 -1 29 -20 17 -19 58 -64 92 -100 35 -38 79 -100 105
-150 156 -298 220 -396 461 -708 23 -29 39 -57 36 -62 -3 -6 -2 -17 3 -26 6
-11 11 -13 16 -5 4 6 2 11 -3 11 -6 0 -11 5 -11 12 0 6 9 3 20 -7 16 -14 18
-21 8 -27 -10 -7 -9 -8 4 -6 9 2 43 -22 75 -52 32 -30 72 -66 88 -80 l30 -25
-25 30 c-14 16 -53 59 -88 95 -45 46 -77 93 -113 164 -52 102 -76 141 -163
261 -74 103 -196 246 -205 240 -5 -2 -8 8 -7 23 1 19 8 29 27 36 22 7 34 2 88
-40 35 -27 79 -60 97 -74 18 -14 51 -40 74 -58 44 -37 56 -30 15 8 -28 26 -35
50 -8 29 20 -17 24 -24 -69 124 -99 157 -98 155 -98 254 0 48 4 93 8 99 7 11
116 84 125 84 2 0 7 -25 10 -55 7 -65 17 -87 28 -59 4 10 8 31 8 46 1 15 6 30
13 34 7 4 8 3 4 -4 -4 -7 -1 -12 8 -12 9 0 16 8 17 18 0 9 3 12 5 5 3 -7 12
-9 20 -6 23 9 44 -17 44 -53 0 -24 5 -34 15 -34 23 0 19 -51 -4 -57 -11 -3
-21 -17 -25 -34 -3 -16 -18 -42 -32 -56 l-27 -27 68 -131 c105 -201 150 -255
184 -220 14 13 13 15 -11 15 -19 0 -35 10 -52 33 -15 19 -26 38 -26 43 0 5 5
2 10 -6 9 -13 10 -13 10 0 0 8 -9 21 -20 28 -23 14 -26 35 -6 51 19 16 46 3
46 -22 0 -19 1 -19 20 -2 10 9 26 15 35 11 12 -4 14 -2 6 13 -13 24 15 51 52
51 32 0 67 32 67 60 0 13 10 25 28 32 15 7 29 13 31 15 3 2 -5 24 -17 51 -11
26 -35 80 -53 120 -17 39 -36 72 -41 72 -11 0 -58 -50 -58 -62 0 -5 -10 -2
-22 6 -12 9 -35 16 -50 16 -16 0 -28 3 -28 7 0 4 13 64 29 133 37 156 75 355
101 525 23 149 24 169 10 160 -5 -3 -10 -21 -10 -39 0 -38 -56 -386 -64 -393
-7 -7 -185 90 -285 155 -230 151 -429 357 -615 637 -36 55 -71 107 -76 115
-37 55 -165 314 -174 354 -4 15 -9 26 -12 23 -3 -2 2 -24 11 -48 9 -24 20 -55
24 -69 15 -48 144 -299 188 -366 7 -11 10 -24 6 -29 -5 -4 -3 -5 3 -2 11 7 39
-39 36 -59 -1 -6 5 -18 15 -25 15 -12 16 -12 10 6 -7 20 -7 20 8 1 8 -11 15
-26 15 -33 0 -7 4 -13 8 -13 5 0 24 -21 42 -47 19 -27 36 -50 39 -53 4 -3 13
-14 21 -25 15 -20 15 -20 -10 0 -49 39 -155 149 -152 158 1 4 -2 6 -7 3 -9 -6
-91 81 -91 95 0 4 -14 22 -30 40 -17 17 -29 38 -26 46 3 8 1 11 -4 8 -8 -5
-41 40 -116 162 -18 28 -25 11 -9 -20 8 -15 11 -35 8 -44 -4 -9 -2 -14 3 -11
5 3 9 -7 10 -23 1 -26 0 -27 -11 -12 -11 15 -14 12 -19 -27 -3 -25 -8 -81 -11
-125 -3 -44 -8 -91 -11 -105 -4 -22 -3 -23 6 -5 15 30 2 -63 -22 -160 -22 -89
-74 -261 -95 -315 -12 -33 -13 -33 -8 -5 3 17 8 41 10 55 35 176 31 572 -8
830 -14 91 -39 235 -57 320 -110 546 -145 1171 -94 1700 19 195 27 330 20 330
-3 0 -6 -9 -6 -20z m781 -2970 c216 -173 448 -329 604 -407 39 -20 72 -37 74
-39 6 -5 -11 -104 -18 -104 -10 0 -51 35 -51 43 0 3 10 7 23 9 12 2 -9 9 -48
16 -38 7 -83 15 -100 19 l-30 6 25 8 c16 6 -3 7 -50 5 -44 -2 -100 -12 -135
-25 -96 -35 -125 -41 -212 -41 -46 0 -83 -4 -83 -9 0 -5 34 -19 75 -32 41 -12
75 -27 75 -32 0 -5 -13 -26 -29 -46 -30 -38 -65 -103 -81 -149 -8 -23 -8 -24
3 -8 35 54 46 57 21 7 l-26 -55 -24 40 c-42 68 -150 285 -197 394 -92 217
-183 523 -210 705 l-13 91 182 -181 c100 -99 201 -196 225 -215z m-431 266
c-10 -16 -9 -18 4 -13 15 6 16 1 10 -31 -4 -20 -10 -38 -14 -40 -8 -3 2 -38
25 -97 7 -16 16 -48 20 -69 5 -31 9 -36 17 -25 8 11 9 10 4 -4 -5 -16 19 -95
33 -107 3 -3 7 -18 9 -35 2 -16 7 -32 11 -35 9 -7 61 -124 61 -139 0 -7 5 -9
12 -5 6 4 8 3 5 -3 -4 -6 47 -117 112 -247 77 -154 111 -230 95 -215 -13 12
-24 19 -24 14 0 -4 -10 4 -21 19 -12 15 -23 25 -26 23 -2 -3 -56 51 -120 119
-105 113 -133 135 -133 101 0 -7 4 -6 11 3 9 13 10 12 5 -2 -3 -11 0 -18 8
-18 16 0 28 -22 34 -64 1 -6 9 -1 18 10 14 18 15 18 4 -4 -9 -19 -14 -21 -26
-11 -8 6 -14 19 -14 28 0 9 -9 22 -20 28 -10 7 -24 22 -31 34 -8 15 -8 19 0
15 6 -4 11 -2 11 3 0 6 -7 11 -15 11 -8 0 -19 9 -25 19 -15 29 -12 39 5 17 11
-14 15 -16 15 -5 0 14 -39 45 -52 41 -4 -1 -5 4 -2 12 3 8 0 17 -7 22 -8 5
-10 3 -5 -7 4 -8 0 -5 -9 6 -9 11 -18 30 -22 43 -3 12 -10 22 -15 22 -6 0 -8
7 -4 15 3 8 0 14 -6 12 -6 -1 -15 12 -21 28 -5 17 -14 33 -20 36 -5 4 -6 13
-2 20 5 8 4 10 0 6 -5 -4 -17 8 -26 28 -19 38 -19 38 87 415 15 52 27 109 26
125 0 21 4 13 15 -25 11 -43 12 -59 3 -74z m48 -147 c-3 -8 -7 -3 -11 10 -4
17 -3 21 5 13 5 -5 8 -16 6 -23z m-68 -554 c5 -3 10 -11 10 -17 0 -13 -29 17
-47 50 -7 12 -13 27 -13 34 1 7 10 -4 20 -24 11 -20 24 -40 30 -43z m35 -56
c4 -11 4 -23 1 -26 -3 -4 -6 1 -6 11 0 9 -4 15 -8 12 -5 -3 -9 1 -9 9 0 22 15
18 22 -6z m60 -98 c3 -5 1 -12 -5 -16 -5 -3 -10 1 -10 9 0 18 6 21 15 7z m29
-29 c3 -5 -1 -9 -9 -9 -8 0 -12 4 -9 9 3 4 7 8 9 8 2 0 6 -4 9 -8z m848 -9
c-6 -2 -10 -9 -6 -14 3 -5 -2 -9 -11 -9 -9 0 -14 -4 -11 -9 8 -12 -19 -33 -29
-23 -5 4 -5 -1 -2 -10 4 -12 2 -15 -9 -11 -7 3 -14 -1 -14 -8 0 -7 -3 -9 -7
-6 -3 4 -12 2 -20 -4 -16 -14 -17 0 -3 33 13 27 76 67 105 67 11 0 14 -3 7 -6z
m-687 -83 c10 0 27 -21 71 -88 29 -43 38 -51 50 -42 7 7 11 17 7 24 -4 7 -2 7
7 -1 10 -9 10 -15 -3 -28 -14 -13 -14 -20 -4 -35 6 -11 15 -20 19 -20 5 0 8
-4 8 -9 0 -17 63 -76 77 -73 9 2 12 -1 8 -8 -3 -6 4 -19 17 -30 14 -12 18 -19
9 -20 -20 0 -284 269 -278 284 3 7 1 19 -5 27 -8 11 -8 9 -4 -6 5 -16 1 -14
-19 8 -14 15 -25 33 -25 39 0 7 7 3 16 -8 14 -18 15 -18 8 6 l-6 25 19 -22
c11 -13 24 -23 28 -23z m-95 -1 c0 -18 -18 -9 -23 12 -4 16 -3 18 9 8 8 -6 14
-15 14 -20z m190 -71 c23 -38 25 -48 8 -48 -6 0 -8 3 -5 7 4 3 1 13 -6 22 -15
18 -29 51 -22 51 3 0 14 -15 25 -32z m77 -80 c-3 -7 -5 -2 -5 12 0 14 2 19 5
13 2 -7 2 -19 0 -25z m103 -40 l0 -43 -20 25 c-23 29 -25 46 -7 53 24 10 27 6
27 -35z m-66 -34 c3 -8 2 -12 -4 -9 -6 3 -10 10 -10 16 0 14 7 11 14 -7z m676
-60 c0 -8 -5 -12 -10 -9 -6 4 -8 11 -5 16 9 14 15 11 15 -7z m36 -50 c8 11 14
14 14 8 0 -7 0 -15 0 -19 0 -8 -4 -9 -35 -12 -8 0 -15 -7 -15 -15 0 -20 -16
-29 -40 -21 -26 8 -27 53 -2 61 9 3 24 9 32 13 11 6 17 2 23 -13 8 -21 9 -21
23 -2z m-664 -59 c-2 -14 -8 -25 -13 -25 -9 0 -32 41 -44 79 l-7 24 34 -27
c28 -21 34 -32 30 -51z m118 -30 c14 -19 14 -19 -2 -6 -10 7 -18 18 -18 24 0
6 1 8 3 6 1 -2 9 -13 17 -24z m390 -25 c0 -11 -7 -20 -15 -20 -8 0 -15 9 -15
20 0 11 7 20 15 20 8 0 15 -9 15 -20z m-438 -103 c-6 -12 -21 2 -38 36 l-17
32 30 -30 c16 -16 27 -33 25 -38z m24 -32 c-5 -14 23 -45 41 -45 17 0 63 -78
57 -95 -5 -11 -2 -14 12 -9 11 4 16 4 12 0 -4 -5 6 -20 22 -36 28 -28 28 -58
0 -40 -11 7 -12 10 -2 10 7 0 10 5 7 10 -4 6 -11 8 -16 5 -5 -3 -6 1 -3 9 3 9
2 16 -4 16 -6 0 -12 -5 -14 -10 -2 -6 -20 17 -41 50 -20 33 -33 60 -27 60 5 0
10 5 10 10 0 6 -8 10 -17 8 -18 -3 -66 58 -57 73 8 14 26 -1 20 -16z m29 -16
c11 -17 -1 -21 -15 -4 -8 9 -8 15 -2 15 6 0 14 -5 17 -11z m161 -227 c-4 -3 1
-16 9 -28 8 -13 11 -25 6 -28 -5 -3 -12 5 -15 19 -4 14 -10 24 -14 24 -19 -3
-23 2 -12 16 7 8 17 12 22 9 5 -3 7 -9 4 -12z m46 -86 c7 4 8 2 4 -5 -10 -15
-26 -4 -25 17 1 15 2 15 6 -1 2 -9 9 -14 15 -11z m36 -62 c-4 -3 -12 5 -18 18
-12 22 -12 22 6 6 10 -10 15 -20 12 -24z"/>
<path d="M1607 6262 c-10 -10 -17 -24 -17 -31 0 -7 -4 -10 -8 -7 -5 3 -9 -2
-9 -11 0 -13 4 -12 17 5 10 12 21 18 25 14 5 -4 5 -1 1 6 -5 8 -3 13 5 11 26
-3 39 1 39 12 0 6 -7 8 -16 5 -8 -3 -12 -2 -9 4 11 17 -11 11 -28 -8z"/>
<path d="M1539 6183 c-13 -16 -12 -17 4 -4 16 13 21 21 13 21 -2 0 -10 -8 -17
-17z"/>
<path d="M1998 5933 c6 -2 18 -2 25 0 6 3 1 5 -13 5 -14 0 -19 -2 -12 -5z"/>
<path d="M1930 4870 c0 -5 5 -10 11 -10 5 0 7 5 4 10 -3 6 -8 10 -11 10 -2 0
-4 -4 -4 -10z"/>
<path d="M6260 9056 c0 -2 8 -10 18 -17 15 -13 16 -12 3 4 -13 16 -21 21 -21
13z"/>
<path d="M2301 8754 c0 -11 3 -14 6 -6 3 7 2 16 -1 19 -3 4 -6 -2 -5 -13z"/>
<path d="M2321 8664 c0 -11 3 -14 6 -6 3 7 2 16 -1 19 -3 4 -6 -2 -5 -13z"/>
<path d="M4111 8664 c0 -11 3 -14 6 -6 3 7 2 16 -1 19 -3 4 -6 -2 -5 -13z"/>
<path d="M4124 8624 c14 -37 100 -359 140 -526 24 -101 65 -273 92 -383 26
-110 48 -219 48 -243 1 -23 7 -46 14 -51 8 -4 10 -15 6 -26 -6 -13 -4 -16 5
-10 10 6 12 -2 6 -36 -4 -24 -9 -46 -10 -47 -7 -8 -30 14 -30 28 0 8 -8 14
-17 14 -10 -1 -20 6 -23 15 -3 9 -20 25 -38 37 -18 11 -31 28 -31 37 1 9 -3
15 -10 14 -6 -1 -10 7 -9 18 1 11 0 14 -3 8 -8 -19 -27 -16 -20 3 4 10 2 14
-6 11 -7 -2 -20 2 -29 10 -15 12 -16 8 -18 -43 -1 -60 -11 -91 -11 -35 0 18
-3 31 -7 29 -95 -44 -367 -186 -423 -221 l-75 -46 -6 27 c-6 26 -7 26 -8 -5
-1 -28 -12 -40 -82 -94 -45 -34 -109 -88 -143 -121 -47 -46 -51 -53 -20 -29
23 17 45 31 49 31 4 0 -18 -28 -48 -62 -66 -77 -177 -217 -177 -225 0 -3 10 2
23 11 77 54 117 75 117 61 0 -9 -16 -79 -36 -156 -19 -78 -33 -148 -29 -156 3
-9 -2 -24 -11 -34 -10 -11 -15 -19 -12 -19 3 0 38 41 77 90 39 50 76 88 81 85
6 -3 10 2 10 13 0 21 144 187 241 277 l64 59 3 -55 3 -55 46 44 c41 38 51 43
87 40 40 -3 41 -4 44 -45 2 -23 -6 -73 -17 -111 -25 -82 -25 -83 -7 -76 19 7
26 -7 19 -35 -4 -18 -11 -22 -30 -18 -19 3 -27 -2 -39 -25 -8 -16 -26 -33 -39
-38 -22 -8 -23 -12 -14 -42 39 -120 56 -155 74 -152 30 3 45 18 43 42 -3 25
-1 26 42 25 25 0 65 -10 90 -22 53 -26 53 -26 41 -3 -20 37 -10 58 28 59 20 1
37 6 39 12 2 6 10 11 18 11 9 0 12 5 9 10 -4 6 5 10 19 10 14 0 26 4 26 9 0
14 50 7 94 -13 24 -11 49 -15 67 -11 32 7 81 60 77 83 -5 26 -23 23 -41 -7
-27 -47 -64 -47 -111 0 -38 39 -39 41 -33 95 7 72 28 104 68 104 47 0 89 -56
89 -119 0 -25 3 -28 25 -23 16 3 25 11 25 24 0 10 11 31 25 46 14 15 25 24 25
20 0 -4 11 -3 25 2 20 8 25 6 25 -6 0 -34 18 -1 24 43 4 27 17 101 28 166 22
117 35 131 38 42 2 -59 8 -34 23 96 12 108 17 123 57 193 24 42 47 73 50 69 4
-5 21 -43 39 -85 35 -87 38 -138 20 -324 -20 -205 -64 -383 -139 -556 -21 -49
-36 -88 -34 -88 2 0 20 32 39 71 73 143 130 356 156 574 15 125 6 436 -16 565
-24 147 -113 462 -146 520 -16 28 -10 -8 12 -72 26 -77 32 -121 16 -111 -119
72 -332 275 -461 438 -95 119 -118 160 -156 283 -17 56 -34 102 -37 102 -3 0
-2 -7 1 -16z m323 -556 c75 -74 86 -90 154 -226 77 -156 161 -344 156 -349 -7
-6 -111 -23 -145 -23 -58 0 -24 18 53 29 59 9 44 9 -87 6 -87 -2 -158 -2 -158
0 0 2 -16 73 -35 157 -39 166 -65 300 -90 448 -8 52 -18 106 -21 119 -4 18 6
12 43 -29 26 -30 85 -89 130 -132z m250 -228 c34 -26 71 -54 81 -62 25 -18 51
-73 58 -122 4 -23 13 -66 20 -96 8 -30 14 -69 14 -87 0 -29 -3 -33 -28 -33
-24 0 -31 7 -47 43 -10 23 -56 125 -102 227 -105 230 -101 219 -77 197 10 -10
47 -40 81 -67z m80 -396 c-9 -9 -28 6 -21 18 4 6 10 6 17 -1 6 -6 8 -13 4 -17z
m113 -85 c0 -5 -4 -9 -10 -9 -5 0 -10 7 -10 16 0 8 5 12 10 9 6 -3 10 -10 10
-16z m3 -70 c5 -43 5 -44 -9 -16 -8 15 -12 33 -8 39 4 7 3 8 -4 4 -7 -4 -12
-4 -12 1 0 4 -3 19 -7 32 l-6 24 20 -20 c11 -11 23 -40 26 -64z m-365 -29 c32
0 54 -5 62 -15 14 -17 36 -161 44 -295 7 -111 0 -106 -45 32 -32 100 -82 197
-130 257 -24 31 -28 43 -23 70 l7 32 18 -40 c18 -40 19 -41 67 -41z m-214 -49
c2 -3 -6 -7 -17 -7 -12 -1 -35 -4 -52 -7 -16 -3 -33 -6 -37 -6 -5 -1 -8 -7 -8
-15 0 -16 -27 -29 -41 -21 -5 4 -7 0 -4 -7 4 -14 -82 -80 -141 -109 -28 -14
-35 -15 -44 -4 -6 8 -19 11 -28 8 -13 -4 -12 -2 3 11 72 59 268 158 293 148 9
-3 13 -1 9 5 -5 7 1 9 15 5 13 -3 19 -1 15 5 -5 7 0 9 13 6 11 -3 22 -8 24
-12z m234 -195 c22 -21 3 -47 -31 -44 -38 4 -56 30 -38 52 15 17 46 14 69 -8z
m-273 -428 c0 -36 -3 -44 -12 -36 -9 7 -13 7 -13 -1 0 -18 -45 -13 -64 8 -13
14 -14 24 -7 44 11 29 25 37 66 34 29 -2 30 -4 30 -49z"/>
<path d="M3980 7070 c-8 -5 -10 -10 -5 -10 6 0 17 5 25 10 8 5 11 10 5 10 -5
0 -17 -5 -25 -10z"/>
<path d="M2330 8624 c0 -5 9 -56 20 -114 74 -377 126 -816 135 -1135 l5 -170
-73 215 c-90 261 -254 676 -264 666 -2 -2 14 -46 36 -97 120 -286 232 -598
283 -789 30 -114 30 -115 24 -295 -7 -177 -29 -474 -42 -567 -4 -30 -3 -48 3
-48 18 0 39 229 50 543 l7 212 23 -95 c51 -213 83 -466 83 -661 0 -73 4 -119
10 -119 13 0 13 183 0 325 -14 143 -52 366 -90 515 -21 84 -30 143 -30 202 0
150 -29 508 -60 752 -35 274 -120 744 -120 660z"/>
<path d="M2136 8117 c3 -10 9 -15 12 -12 3 3 0 11 -7 18 -10 9 -11 8 -5 -6z"/>
<path d="M5610 8090 c-6 -11 -8 -20 -6 -20 3 0 10 9 16 20 6 11 8 20 6 20 -3
0 -10 -9 -16 -20z"/>
<path d="M387 7821 c-84 -461 -54 -881 96 -1356 20 -60 50 -161 67 -224 46
-167 112 -337 195 -506 76 -155 96 -191 184 -334 28 -46 51 -92 51 -102 0 -10
5 -21 11 -24 12 -8 2 -67 -13 -76 -5 -3 -1 -21 10 -41 11 -19 22 -44 25 -54 3
-10 4 1 1 26 -4 44 -4 44 19 -20 13 -36 31 -82 40 -103 9 -21 16 -41 15 -45
-1 -4 6 -25 16 -47 36 -82 47 -118 36 -129 -5 -5 -10 -15 -10 -20 0 -6 5 -3
11 7 10 16 17 6 51 -70 61 -135 75 -163 113 -228 55 -93 85 -158 85 -183 0
-23 69 -372 76 -383 1 -3 15 -50 29 -105 70 -263 183 -570 283 -769 80 -160
82 -164 94 -171 6 -4 -3 19 -21 52 -81 150 -200 438 -276 669 -57 173 -141
563 -133 614 2 16 20 -6 68 -86 35 -59 92 -153 126 -208 56 -90 68 -121 128
-320 82 -273 114 -373 115 -359 1 6 -14 63 -33 125 -41 134 -106 370 -106 383
0 5 23 -22 52 -60 66 -88 299 -322 403 -406 100 -81 225 -168 335 -234 160
-97 216 -117 72 -26 -110 68 -193 129 -247 179 -96 88 -99 90 -86 66 6 -13 16
-23 21 -23 5 0 14 -9 21 -21 20 -37 -106 59 -224 171 -214 204 -408 454 -522
675 -25 50 -50 94 -56 100 -5 5 -9 13 -9 18 0 5 20 -17 44 -50 60 -79 214
-234 310 -312 43 -35 135 -101 205 -147 69 -46 131 -87 136 -92 36 -28 313
-166 290 -143 -5 5 -53 32 -105 59 -107 55 -183 99 -250 145 -112 76 -280 229
-370 336 -25 30 -57 68 -71 85 -14 17 -45 59 -68 94 -24 34 -45 62 -48 62 -17
0 151 -222 240 -316 134 -143 83 -110 -79 51 -181 179 -363 433 -461 645 -14
30 -39 84 -55 120 -17 35 -31 74 -32 86 0 12 -4 20 -8 18 -4 -3 -11 10 -17 28
-5 18 -28 85 -51 148 -43 118 -45 124 -59 199 -10 51 -16 55 98 -82 45 -54 79
-102 76 -107 -3 -6 1 -7 9 -4 9 3 16 2 16 -3 0 -5 26 -36 58 -68 31 -33 56
-64 54 -68 -1 -5 3 -5 9 -1 9 5 10 2 6 -9 -4 -11 -2 -14 9 -10 15 6 19 -7 7
-23 -5 -5 -4 -6 1 -2 13 10 56 -21 50 -37 -3 -7 -1 -16 5 -20 7 -4 8 0 4 11
-6 16 -4 16 20 -2 15 -10 25 -24 22 -31 -2 -8 2 -10 12 -6 12 5 14 3 8 -7 -5
-8 -4 -11 2 -7 6 4 18 -2 28 -13 11 -13 14 -20 6 -20 -7 0 -9 -5 -5 -11 4 -8
9 -7 15 2 8 12 11 12 18 -1 5 -8 7 -18 4 -24 -3 -5 -1 -6 6 -2 14 9 113 -63
105 -76 -4 -5 0 -8 7 -6 8 1 28 -8 46 -21 30 -22 31 -25 15 -37 -9 -8 -12 -14
-5 -14 6 0 15 5 18 10 9 15 19 12 43 -10 12 -11 24 -20 27 -20 14 1 84 -59 75
-65 -17 -10 -11 -24 9 -22 11 0 17 6 14 14 -8 21 16 15 29 -7 7 -11 21 -20 31
-20 10 0 15 -4 12 -10 -3 -6 -1 -10 4 -10 6 0 11 -5 11 -11 0 -6 -6 -9 -14 -6
-15 6 -16 -17 -1 -30 4 -4 5 -2 1 5 -4 6 -3 12 3 12 5 0 11 -6 14 -12 2 -7 8
-9 13 -5 5 4 4 11 -1 15 -6 4 -11 15 -11 24 -1 14 2 15 22 6 13 -6 24 -18 24
-27 0 -12 2 -13 9 -3 11 19 35 -12 28 -37 -3 -12 0 -18 7 -15 11 4 52 -62 48
-78 -1 -3 5 -12 13 -18 8 -7 15 -17 15 -22 0 -6 20 -46 45 -90 25 -44 45 -83
45 -87 0 -9 -106 107 -153 169 -23 30 -45 57 -48 60 -3 3 -18 25 -33 48 -15
24 -29 42 -32 40 -6 -6 19 -75 46 -127 12 -24 19 -49 16 -57 -4 -10 -2 -12 6
-8 8 5 9 2 5 -10 -4 -9 -3 -15 1 -12 5 3 26 -29 48 -72 58 -114 195 -345 214
-362 4 -3 27 -34 52 -70 26 -36 62 -83 81 -105 l35 -40 -29 85 c-36 109 -36
116 3 55 85 -134 202 -311 208 -315 3 -3 26 -34 50 -69 l43 -64 12 -146 12
-146 4 124 4 125 95 -132 c127 -176 230 -325 230 -334 0 -4 -36 -44 -81 -90
-44 -46 -78 -75 -75 -65 21 64 12 62 -24 -6 -22 -43 -40 -81 -40 -85 0 -10
126 116 180 180 l48 57 83 -127 c123 -188 223 -351 262 -425 34 -62 35 -67 22
-104 -40 -115 -49 -127 -139 -187 -47 -32 -86 -60 -86 -63 0 -3 15 5 33 17 17
12 79 44 137 71 58 27 112 54 121 58 8 5 22 5 31 0 12 -6 20 -3 31 14 8 12 38
31 68 41 29 11 48 21 43 23 -6 2 -34 -5 -62 -16 l-51 -20 -21 47 c-51 113 -61
144 -54 179 l7 35 81 -83 c45 -46 150 -144 234 -218 84 -74 152 -139 152 -144
0 -5 -9 -22 -21 -39 -12 -16 -19 -32 -16 -35 3 -2 13 9 22 26 8 17 22 31 29
31 13 0 54 -29 219 -155 51 -39 114 -86 141 -104 27 -19 51 -42 53 -52 4 -12
14 -19 31 -19 15 0 22 4 17 8 -6 5 -46 42 -90 83 -45 41 -101 92 -125 115 -51
46 -186 187 -272 283 -32 35 -58 61 -58 56 0 -10 88 -115 176 -209 70 -75 96
-114 55 -85 -152 110 -559 493 -756 711 -43 49 -80 86 -83 84 -2 -2 19 -42 47
-88 56 -94 206 -396 199 -403 -2 -2 -13 12 -23 33 -48 91 -178 303 -299 487
-73 110 -148 225 -166 255 -19 30 -60 89 -91 130 -31 41 -95 131 -142 200 -48
69 -104 150 -125 180 -41 58 -204 322 -263 425 -18 33 -42 74 -51 90 -10 17
-26 46 -36 65 -9 19 -19 37 -22 40 -3 3 -13 20 -23 38 -9 19 -38 72 -62 118
-25 47 -43 90 -39 96 4 6 3 9 -2 5 -5 -3 -20 17 -34 44 -20 41 -22 53 -12 69
7 12 8 21 2 25 -6 3 -10 1 -10 -4 0 -6 -5 -11 -11 -11 -5 0 -7 5 -4 11 4 6 -1
16 -11 24 -11 7 -16 17 -11 21 4 4 14 -1 22 -12 14 -18 15 -17 9 11 -4 20 -3
26 4 17 5 -8 13 -13 18 -12 5 1 17 -9 28 -23 15 -20 17 -31 9 -54 -7 -20 -6
-35 4 -53 l14 -25 -5 30 c-3 17 -1 37 5 45 9 13 10 13 6 0 -2 -8 3 -21 10 -29
8 -7 12 -20 9 -28 -3 -8 -2 -12 2 -9 4 3 14 -4 21 -16 10 -16 10 -19 -1 -12
-7 5 1 -9 19 -31 18 -21 30 -42 27 -47 -3 -4 0 -8 6 -8 6 0 9 -4 6 -9 -3 -5 1
-12 10 -15 8 -3 12 -10 9 -16 -3 -5 -2 -10 3 -10 5 0 31 -32 57 -71 115 -172
251 -299 575 -542 233 -175 279 -211 444 -356 60 -53 147 -128 192 -168 105
-93 139 -113 189 -113 l41 0 58 -128 c106 -230 427 -834 524 -982 85 -130 155
-235 161 -240 3 -3 6 -12 6 -20 0 -19 32 -25 51 -9 12 10 11 13 -8 23 -12 6
-28 21 -34 34 -6 12 -18 30 -27 40 -10 10 -17 22 -17 25 0 4 -39 66 -86 138
-47 73 -94 146 -104 163 -10 17 -48 83 -85 146 -37 63 -76 131 -87 150 -28 47
-131 253 -163 326 -57 126 -145 334 -145 343 0 5 30 21 68 36 108 45 286 124
302 136 22 16 6 10 -143 -56 -163 -71 -265 -105 -315 -105 -45 0 -78 20 -185
112 -268 230 -454 384 -598 495 -294 226 -432 358 -576 553 -108 146 -237 370
-214 370 5 0 31 -9 57 -20 26 -11 49 -19 51 -17 2 2 -38 21 -89 42 -327 133
-689 383 -964 666 -136 139 -254 273 -254 288 0 6 -4 11 -9 11 -8 0 -33 34
-167 233 -100 147 -208 370 -283 582 -17 47 -31 92 -31 98 0 7 24 -31 53 -83
28 -52 62 -109 75 -127 12 -17 22 -33 22 -36 0 -6 80 -128 105 -162 9 -11 36
-46 61 -77 27 -34 43 -62 38 -69 -5 -8 -3 -9 6 -4 7 4 15 3 19 -2 39 -63 389
-423 410 -423 6 0 -42 53 -107 118 -524 522 -806 1046 -909 1683 -26 165 -26
659 0 842 11 71 17 130 15 132 -2 2 -12 -40 -21 -94z m1803 -3546 c0 -8 -2
-15 -4 -15 -2 0 -6 7 -10 15 -3 8 -1 15 4 15 6 0 10 -7 10 -15z m152 -400 c22
-43 130 -345 123 -345 -2 0 -45 61 -94 135 -78 116 -201 342 -201 368 0 20
153 -120 172 -158z m1230 -1741 c-6 -30 -6 -30 -32 31 l-21 50 29 -28 c21 -21
28 -35 24 -53z m27 -235 l21 -37 -45 -15 c-50 -18 -53 -14 -34 44 6 19 13 40
15 48 5 17 12 10 43 -40z"/>
<path d="M3203 7819 c-24 -17 -43 -32 -43 -35 0 -3 20 9 45 26 25 17 45 33 45
35 0 7 -2 6 -47 -26z"/>
<path d="M8370 7723 c0 -5 14 -21 31 -38 16 -16 43 -50 59 -75 31 -49 56 -83
80 -109 8 -9 33 -39 54 -65 22 -27 42 -44 44 -38 3 11 -53 120 -68 132 -14 11
-48 80 -54 108 -11 47 -70 92 -120 92 -14 0 -26 -3 -26 -7z"/>
<path d="M296 7430 c3 -307 25 -592 70 -895 59 -405 65 -460 71 -720 3 -143 9
-267 14 -275 11 -20 11 90 -1 347 -10 212 -18 285 -65 640 -45 341 -70 654
-89 1108 -2 44 -2 -48 0 -205z"/>
<path d="M5871 7695 c1 -19 18 -51 18 -35 0 8 -4 22 -9 30 -5 8 -9 11 -9 5z"/>
<path d="M5848 7653 c5 -21 7 -23 10 -9 2 10 0 22 -6 28 -6 6 -7 0 -4 -19z"/>
<path d="M2943 7515 c-3 -9 -3 -18 -1 -21 3 -3 8 4 11 16 6 23 -1 27 -10 5z"/>
<path d="M6006 7447 c3 -10 9 -15 12 -12 3 3 0 11 -7 18 -10 9 -11 8 -5 -6z"/>
<path d="M5374 7135 c0 -338 -9 -473 -50 -780 -32 -246 -54 -365 -115 -614
-27 -112 -47 -206 -45 -208 5 -5 78 263 112 411 l28 120 15 -42 c15 -41 31
-56 31 -29 0 8 -9 39 -19 70 -19 56 -19 57 0 164 18 101 33 133 61 133 4 0 8
12 8 27 0 25 0 26 -20 8 -19 -18 -20 -17 -20 6 0 13 8 94 17 179 19 177 24
716 7 815 -7 46 -10 -15 -10 -260z"/>
<path d="M4302 7416 c7 -8 15 -12 17 -11 5 6 -10 25 -20 25 -5 0 -4 -6 3 -14z"/>
<path d="M6731 7304 c0 -11 3 -14 6 -6 3 7 2 16 -1 19 -3 4 -6 -2 -5 -13z"/>
<path d="M6720 7271 c0 -5 5 -13 10 -16 6 -3 10 -2 10 4 0 5 -4 13 -10 16 -5
3 -10 2 -10 -4z"/>
<path d="M6130 7145 c0 -5 5 -17 10 -25 5 -8 10 -10 10 -5 0 6 -5 17 -10 25
-5 8 -10 11 -10 5z"/>
<path d="M3244 7073 c-39 -48 -65 -84 -97 -138 -17 -28 -16 -28 13 5 l31 35
-5 -45 c-7 -52 -3 -46 19 30 8 31 31 79 50 108 18 29 32 52 31 52 -2 0 -21
-21 -42 -47z"/>
<path d="M6822 7075 c0 -11 3 -29 7 -39 7 -18 8 -18 14 -3 3 9 2 17 -3 17 -5
0 -11 10 -13 23 -4 18 -4 19 -5 2z"/>
<path d="M6901 6905 c0 -5 4 -19 8 -29 7 -19 8 -19 13 2 4 12 2 20 -2 17 -5
-3 -11 1 -13 7 -3 7 -5 9 -6 3z"/>
<path d="M1805 6870 c3 -5 8 -10 11 -10 2 0 4 5 4 10 0 6 -5 10 -11 10 -5 0
-7 -4 -4 -10z"/>
<path d="M1850 6840 c0 -5 5 -10 11 -10 5 0 7 5 4 10 -3 6 -8 10 -11 10 -2 0
-4 -4 -4 -10z"/>
<path d="M5719 6833 c-13 -16 -12 -17 4 -4 9 7 17 15 17 17 0 8 -8 3 -21 -13z"/>
<path d="M1875 6810 c3 -5 8 -10 11 -10 2 0 4 5 4 10 0 6 -5 10 -11 10 -5 0
-7 -4 -4 -10z"/>
<path d="M1855 6790 c3 -5 8 -10 11 -10 2 0 4 5 4 10 0 6 -5 10 -11 10 -5 0
-7 -4 -4 -10z"/>
<path d="M5895 6750 c3 -5 8 -10 11 -10 2 0 4 5 4 10 0 6 -5 10 -11 10 -5 0
-7 -4 -4 -10z"/>
<path d="M5836 6731 c-3 -5 1 -11 9 -14 9 -4 12 -1 8 9 -6 16 -10 17 -17 5z"/>
<path d="M5630 6730 c-8 -26 -7 -41 2 -32 6 6 8 16 5 24 -3 7 -6 11 -7 8z"/>
<path d="M1950 6707 c0 -19 16 -31 24 -18 3 5 -1 14 -9 21 -12 10 -15 10 -15
-3z"/>
<path d="M4354 6699 c-10 -16 5 -59 20 -59 8 0 15 14 18 33 3 26 0 33 -14 34
-10 1 -20 -3 -24 -8z"/>
<path d="M6985 6680 c-4 -17 -5 -34 -2 -36 3 -3 8 9 12 26 4 17 5 34 2 36 -3
3 -8 -9 -12 -26z"/>
<path d="M4655 6673 c-5 -16 -9 -32 -11 -38 -1 -5 -5 -19 -9 -30 -4 -13 -1
-11 8 5 15 26 32 90 24 90 -3 0 -8 -12 -12 -27z"/>
<path d="M4708 6653 c7 -3 16 -2 19 1 4 3 -2 6 -13 5 -11 0 -14 -3 -6 -6z"/>
<path d="M5536 6614 c-23 -23 -20 -30 4 -9 11 10 20 20 20 22 0 7 -9 2 -24
-13z"/>
<path d="M4561 6547 c-7 -19 -28 -54 -49 -78 -36 -42 -36 -43 -7 -22 35 24
125 118 125 130 0 4 -13 -7 -29 -25 -36 -39 -44 -40 -30 -6 5 15 8 29 5 31 -2
2 -9 -11 -15 -30z"/>
<path d="M4535 6549 c-4 -6 -5 -12 -2 -15 2 -3 7 2 10 11 7 17 1 20 -8 4z"/>
<path d="M6867 6554 c-4 -4 -6 -37 -5 -73 l2 -66 3 58 c4 54 15 72 27 45 3 -7
4 -2 3 11 -2 25 -18 37 -30 25z"/>
<path d="M7641 6534 c0 -11 3 -14 6 -6 3 7 2 16 -1 19 -3 4 -6 -2 -5 -13z"/>
<path d="M5470 6515 c-8 -9 -8 -15 -2 -15 12 0 26 19 19 26 -2 2 -10 -2 -17
-11z"/>
<path d="M5655 6500 c-3 -6 1 -7 9 -4 18 7 21 14 7 14 -6 0 -13 -4 -16 -10z"/>
<path d="M7642 6490 c0 -14 2 -19 5 -12 2 6 2 18 0 25 -3 6 -5 1 -5 -13z"/>
<path d="M1530 6452 c0 -5 7 -15 15 -22 8 -7 15 -8 15 -2 0 5 -7 15 -15 22 -8
7 -15 8 -15 2z"/>
<path d="M5535 6430 c-3 -6 1 -7 9 -4 18 7 21 14 7 14 -6 0 -13 -4 -16 -10z"/>
<path d="M7631 6424 c0 -11 3 -14 6 -6 3 7 2 16 -1 19 -3 4 -6 -2 -5 -13z"/>
<path d="M3900 6327 c0 -10 54 -114 79 -153 l21 -30 -40 -23 c-22 -12 -40 -25
-40 -28 0 -3 21 8 48 23 80 46 122 74 122 80 0 3 -10 -2 -22 -10 -12 -9 -30
-16 -38 -16 -22 0 -61 44 -99 110 -17 30 -31 51 -31 47z"/>
<path d="M5692 6265 c0 -16 2 -22 5 -12 2 9 2 23 0 30 -3 6 -5 -1 -5 -18z"/>
<path d="M7140 6173 c0 -5 5 -15 10 -23 8 -12 10 -11 10 8 0 12 -4 22 -10 22
-5 0 -10 -3 -10 -7z"/>
<path d="M2612 6038 c-19 -179 -56 -325 -120 -485 -12 -29 -20 -53 -17 -53 12
0 83 169 100 240 19 80 44 218 50 275 3 39 8 85 11 103 3 17 1 32 -3 32 -5 0
-14 -51 -21 -112z"/>
<path d="M7182 6080 c0 -14 2 -19 5 -12 2 6 2 18 0 25 -3 6 -5 1 -5 -13z"/>
<path d="M2762 6055 c0 -16 2 -22 5 -12 2 9 2 23 0 30 -3 6 -5 -1 -5 -18z"/>
<path d="M7191 6034 c0 -11 3 -14 6 -6 3 7 2 16 -1 19 -3 4 -6 -2 -5 -13z"/>
<path d="M8411 5929 c5 -23 14 -50 19 -60 6 -10 10 -29 10 -43 0 -14 5 -28 10
-31 6 -3 10 -16 10 -28 1 -29 38 -109 39 -83 1 25 -36 161 -55 203 -8 17 -14
38 -14 46 0 8 -6 20 -14 26 -12 10 -13 5 -5 -30z"/>
<path d="M5191 5784 c0 -11 3 -14 6 -6 3 7 2 16 -1 19 -3 4 -6 -2 -5 -13z"/>
<path d="M6912 5605 c0 -16 2 -22 5 -12 2 9 2 23 0 30 -3 6 -5 -1 -5 -18z"/>
<path d="M7041 5613 c0 -4 4 -17 8 -27 6 -15 9 -16 13 -5 3 8 -1 20 -8 27 -8
7 -14 9 -13 5z"/>
<path d="M8515 5551 c-12 -39 37 -195 76 -241 24 -28 29 -31 29 -15 0 11 -5
37 -11 58 -6 22 -8 41 -5 44 3 3 24 -6 48 -21 58 -34 164 -86 177 -86 26 0
-24 55 -105 116 -49 37 -115 89 -146 116 -51 44 -57 47 -63 29z"/>
<path d="M432 5288 c-14 -265 -41 -507 -82 -746 -17 -96 -28 -177 -26 -179 12
-12 71 356 101 637 15 143 32 510 24 510 -3 0 -10 -100 -17 -222z"/>
<path d="M6913 5385 c0 -33 2 -45 4 -27 2 18 2 45 0 60 -2 15 -4 0 -4 -33z"/>
<path d="M1010 5410 c0 -5 5 -10 10 -10 6 0 10 5 10 10 0 6 -4 10 -10 10 -5 0
-10 -4 -10 -10z"/>
<path d="M6928 5314 c-1 -31 0 -58 5 -61 4 -2 7 23 7 56 0 76 -7 79 -12 5z"/>
<path d="M6953 5283 c-1 -70 9 -103 30 -103 8 0 9 3 1 8 -6 4 -14 19 -18 34
-5 21 -1 32 14 45 24 21 28 76 5 67 -8 -4 -15 -1 -15 5 0 6 -4 11 -8 11 -5 0
-9 -30 -9 -67z"/>
<path d="M7043 5220 c4 -30 2 -50 -4 -50 -5 0 -7 -12 -3 -27 l7 -28 -22 25
-21 25 10 -30 c6 -16 18 -36 27 -42 9 -7 13 -13 9 -13 -4 0 4 -11 18 -23 14
-13 23 -27 19 -30 -3 -4 1 -7 10 -7 10 0 17 -5 17 -11 0 -7 12 -22 26 -36 22
-20 25 -21 19 -4 -3 11 -1 22 4 25 21 13 41 71 41 118 0 51 -15 78 -44 78 -19
0 -22 36 -3 44 25 10 -26 36 -71 36 l-45 0 6 -50z m47 -127 c-1 -31 -3 -35
-11 -20 -6 9 -7 26 -4 37 10 30 15 24 15 -17z m40 -5 c0 -9 -4 -20 -10 -23 -6
-4 -10 9 -10 32 0 28 3 34 10 23 5 -8 10 -23 10 -32z"/>
<path d="M7010 5185 c0 -8 5 -15 10 -15 6 0 10 7 10 15 0 8 -4 15 -10 15 -5 0
-10 -7 -10 -15z"/>
<path d="M587 5075 c8 -117 -52 -369 -156 -654 -29 -80 -37 -111 -26 -100 11
11 153 401 175 479 13 47 26 89 30 93 13 15 40 -85 57 -213 18 -130 24 -589
11 -750 -6 -68 -6 -71 4 -30 8 29 12 181 12 418 1 327 3 367 15 331 18 -56 26
-41 11 23 -10 44 -100 354 -130 448 -5 15 -6 -3 -3 -45z"/>
<path d="M982 5110 c0 -14 2 -19 5 -12 2 6 2 18 0 25 -3 6 -5 1 -5 -13z"/>
<path d="M2593 5113 c-3 -10 -13 -27 -22 -37 -12 -15 -9 -14 17 4 17 13 32 30
32 37 0 19 -20 16 -27 -4z"/>
<path d="M1480 5082 c0 -10 33 -42 43 -42 14 0 5 16 -18 33 -14 10 -25 14 -25
9z"/>
<path d="M1010 5050 c0 -11 7 -20 15 -20 17 0 39 -44 37 -75 -2 -20 -2 -20 7
0 5 13 1 35 -13 67 -22 49 -46 64 -46 28z"/>
<path d="M1051 4914 c0 -11 3 -14 6 -6 3 7 2 16 -1 19 -3 4 -6 -2 -5 -13z"/>
<path d="M1720 4840 c0 -5 5 -10 10 -10 6 0 10 5 10 10 0 6 -4 10 -10 10 -5 0
-10 -4 -10 -10z"/>
<path d="M1844 4821 c1 -17 4 -31 9 -31 10 0 9 32 -2 48 -5 9 -8 3 -7 -17z"/>
<path d="M2300 4840 c-8 -5 -23 -7 -34 -4 -11 4 -16 2 -12 -4 3 -6 -2 -13 -11
-15 -12 -3 -9 -5 8 -6 15 0 37 8 50 19 25 20 24 26 -1 10z"/>
<path d="M2555 4809 c4 -13 11 -26 15 -29 4 -3 23 -30 42 -60 19 -30 48 -66
64 -80 16 -14 24 -18 18 -10 -6 8 -37 50 -68 92 -31 42 -56 81 -56 87 0 5 -5
13 -11 17 -8 4 -9 -1 -4 -17z"/>
<path d="M1872 4788 c2 -6 10 -14 16 -16 7 -2 10 2 6 12 -7 18 -28 22 -22 4z"/>
<path d="M2200 4769 c0 -5 5 -7 10 -4 6 3 10 8 10 11 0 2 -4 4 -10 4 -5 0 -10
-5 -10 -11z"/>
<path d="M1720 4750 c0 -5 5 -10 10 -10 6 0 10 5 10 10 0 6 -4 10 -10 10 -5 0
-10 -4 -10 -10z"/>
<path d="M1911 4744 c0 -11 3 -14 6 -6 3 7 2 16 -1 19 -3 4 -6 -2 -5 -13z"/>
<path d="M1930 4731 c0 -6 4 -13 10 -16 6 -3 7 1 4 9 -7 18 -14 21 -14 7z"/>
<path d="M4346 4682 c-18 -37 -26 -68 -23 -87 l4 -30 2 33 c2 48 45 111 81
119 36 7 30 23 -9 23 -23 0 -31 -8 -55 -58z"/>
<path d="M1960 4675 c0 -18 5 -25 19 -25 11 0 22 -6 24 -12 4 -9 6 -8 6 3 1 8
-10 25 -24 37 l-25 22 0 -25z"/>
<path d="M1858 4653 c7 -3 16 -2 19 1 4 3 -2 6 -13 5 -11 0 -14 -3 -6 -6z"/>
<path d="M741 4624 c-2 -28 60 -245 84 -294 15 -30 44 -93 65 -140 84 -189
181 -381 248 -493 40 -65 72 -120 72 -122 0 -9 142 -215 153 -222 7 -4 4 6 -6
22 l-18 30 20 -24 c12 -12 18 -27 15 -32 -13 -22 142 -199 347 -394 86 -83 74
-67 -45 58 -159 166 -376 460 -446 605 -14 29 -28 52 -32 52 -4 0 11 -34 34
-76 22 -41 38 -77 36 -80 -8 -7 -116 181 -218 381 -107 208 -155 323 -303 725
-3 8 -6 10 -6 4z m567 -1165 c18 -27 27 -47 22 -44 -11 7 -60 80 -60 90 0 12
9 2 38 -46z"/>
<path d="M2719 4596 c13 -16 51 -41 51 -33 0 2 -15 14 -32 27 -21 15 -28 17
-19 6z"/>
<path d="M2030 4570 c0 -5 5 -10 11 -10 5 0 7 5 4 10 -3 6 -8 10 -11 10 -2 0
-4 -4 -4 -10z"/>
<path d="M2005 4550 c3 -5 8 -10 11 -10 2 0 4 5 4 10 0 6 -5 10 -11 10 -5 0
-7 -4 -4 -10z"/>
<path d="M4312 4530 c0 -14 2 -19 5 -12 2 6 2 18 0 25 -3 6 -5 1 -5 -13z"/>
<path d="M2798 4533 c6 -2 18 -2 25 0 6 3 1 5 -13 5 -14 0 -19 -2 -12 -5z"/>
<path d="M4260 4484 c-25 -7 -58 -13 -73 -13 -21 -1 -50 -21 -105 -71 -42 -38
-116 -97 -164 -130 -49 -34 -88 -63 -88 -66 0 -10 149 97 235 167 75 62 98 75
159 91 39 11 75 24 81 29 5 5 7 8 5 8 -3 -1 -25 -7 -50 -15z"/>
<path d="M8161 4433 c-13 -3 -26 -14 -29 -25 -4 -15 -7 -17 -13 -6 -7 10 -9
10 -9 1 0 -7 -6 -13 -14 -13 -8 0 -18 -10 -21 -21 -8 -25 14 -59 64 -97 30
-24 33 -24 30 -7 -4 30 10 65 27 65 20 0 44 24 44 44 0 9 5 16 10 16 6 0 10 8
10 19 0 13 -10 20 -31 25 -17 3 -34 5 -38 5 -3 -1 -17 -4 -30 -6z"/>
<path d="M770 4350 c0 -30 -9 -118 -20 -194 -11 -77 -19 -141 -17 -142 2 -2
16 56 32 129 31 141 37 229 17 249 -9 9 -12 0 -12 -42z"/>
<path d="M306 4314 c-4 -20 -5 -38 -3 -40 3 -3 8 11 11 32 4 20 5 38 3 40 -3
3 -8 -11 -11 -32z"/>
<path d="M386 4301 c-12 -18 -65 -155 -62 -158 3 -4 18 25 51 101 14 33 23 61
21 63 -2 2 -7 0 -10 -6z"/>
<path d="M2240 4238 c0 -9 6 -21 14 -28 8 -6 12 -19 10 -28 -5 -15 -4 -14 6 1
9 14 7 23 -9 44 -14 17 -21 20 -21 11z"/>
<path d="M3794 4184 c-18 -14 -18 -15 4 -4 12 6 22 13 22 15 0 8 -5 6 -26 -11z"/>
<path d="M2166 4152 c-3 -5 1 -9 9 -9 8 0 12 4 9 9 -3 4 -7 8 -9 8 -2 0 -6 -4
-9 -8z"/>
<path d="M7960 3998 c1 -24 7 -56 14 -73 l12 -30 32 44 32 44 -32 28 c-47 40
-58 37 -58 -13z"/>
<path d="M2341 4002 c-1 -8 -6 -10 -13 -6 -10 5 -10 4 -1 -6 15 -16 28 -8 20
12 -4 11 -6 11 -6 0z"/>
<path d="M3415 3949 c-16 -5 -38 -6 -47 -3 -11 3 -21 -3 -29 -17 -10 -19 -9
-21 4 -16 9 3 34 11 56 17 22 6 43 15 46 20 3 6 5 10 3 9 -2 0 -16 -5 -33 -10z"/>
<path d="M1151 3755 c0 -5 8 -26 19 -45 11 -19 19 -30 19 -25 0 6 -8 26 -19
45 -11 19 -19 31 -19 25z"/>
<path d="M2520 3413 c1 -11 59 -120 60 -112 0 10 -51 119 -56 119 -2 0 -4 -3
-4 -7z"/>
<path d="M4699 3233 c-13 -16 -12 -17 4 -4 16 13 21 21 13 21 -2 0 -10 -8 -17
-17z"/>
<path d="M2610 3221 c0 -6 4 -13 10 -16 6 -3 7 1 4 9 -7 18 -14 21 -14 7z"/>
<path d="M7950 3200 l-21 -30 21 0 c38 0 66 42 35 53 -9 4 -22 -5 -35 -23z"/>
<path d="M1881 3205 c0 -5 6 -35 14 -65 l15 -55 -6 50 c-5 43 -24 99 -23 70z"/>
<path d="M4491 3085 c-134 -97 -176 -130 -141 -110 43 26 290 204 290 211 0 7
1 7 -149 -101z"/>
<path d="M1912 3040 c0 -19 2 -27 5 -17 2 9 2 25 0 35 -3 9 -5 1 -5 -18z"/>
<path d="M1922 2970 c0 -19 2 -27 5 -17 2 9 2 25 0 35 -3 9 -5 1 -5 -18z"/>
<path d="M1937 2845 c3 -44 9 -152 13 -240 l8 -160 -5 190 c-2 105 -8 213 -13
240 -7 40 -8 34 -3 -30z"/>
<path d="M2731 2895 c-1 -5 -17 -120 -36 -254 -20 -135 -34 -249 -32 -254 1
-5 18 80 36 189 18 110 35 201 36 203 2 2 7 -10 10 -25 18 -80 56 -219 62
-223 3 -4 2 8 -2 24 -4 17 -22 102 -40 190 -19 88 -34 156 -34 150z"/>
<path d="M2833 2740 c0 -41 2 -58 4 -37 2 20 2 54 0 75 -2 20 -4 3 -4 -38z"/>
<path d="M2037 2689 c3 -30 -2 -103 -11 -164 -26 -181 -27 -193 -7 -115 11 41
22 99 26 128 3 28 10 52 15 52 5 0 22 -39 38 -87 17 -49 31 -81 31 -72 1 15
-86 299 -94 307 -2 2 -1 -20 2 -49z"/>
<path d="M2843 2595 c0 -22 2 -30 4 -17 2 12 2 30 0 40 -3 9 -5 -1 -4 -23z"/>
<path d="M2811 2504 c0 -11 3 -14 6 -6 3 7 2 16 -1 19 -3 4 -6 -2 -5 -13z"/>
<path d="M6121 2504 c0 -11 3 -14 6 -6 3 7 2 16 -1 19 -3 4 -6 -2 -5 -13z"/>
<path d="M2852 2485 c0 -16 2 -22 5 -12 2 9 2 23 0 30 -3 6 -5 -1 -5 -18z"/>
<path d="M6064 2428 c-11 -25 -7 -58 6 -58 5 0 8 18 7 40 -1 22 -2 40 -3 40 0
0 -5 -10 -10 -22z"/>
<path d="M6090 2406 c0 -14 5 -28 10 -31 6 -4 10 7 10 24 0 17 -4 31 -10 31
-5 0 -10 -11 -10 -24z"/>
<path d="M1951 2404 c0 -11 3 -14 6 -6 3 7 2 16 -1 19 -3 4 -6 -2 -5 -13z"/>
<path d="M2874 2388 l-29 -33 33 29 c30 28 37 36 29 36 -2 0 -16 -15 -33 -32z"/>
<path d="M2462 2359 c55 -154 83 -307 72 -390 -3 -22 -4 -39 -1 -39 3 0 23 33
45 73 43 77 121 187 180 252 20 22 2 6 -42 -35 -43 -41 -95 -102 -116 -135
-35 -54 -39 -57 -44 -35 -3 14 -12 61 -21 104 -16 74 -60 205 -72 216 -4 3 -4
-2 -1 -11z"/>
<path d="M2652 2350 c0 -14 2 -19 5 -12 2 6 2 18 0 25 -3 6 -5 1 -5 -13z"/>
<path d="M5551 1924 c0 -11 3 -14 6 -6 3 7 2 16 -1 19 -3 4 -6 -2 -5 -13z"/>
<path d="M3275 1670 c-3 -5 -2 -10 4 -10 5 0 13 5 16 10 3 6 2 10 -4 10 -5 0
-13 -4 -16 -10z"/>
<path d="M3230 1627 c-14 -12 -36 -38 -49 -57 l-24 -35 34 35 c71 75 91 104
39 57z"/>
<path d="M3997 1593 c-2 -10 -8 -27 -12 -38 -12 -30 9 -6 23 28 6 15 8 27 3
27 -5 0 -11 -8 -14 -17z"/>
<path d="M3953 1503 c-18 -38 -16 -54 2 -19 9 16 14 33 13 37 -2 5 -9 -4 -15
-18z"/>
<path d="M4876 1461 c-41 -9 -46 -31 -7 -31 17 0 31 5 31 10 0 6 23 10 50 10
28 0 50 5 50 10 0 11 -77 12 -124 1z"/>
<path d="M3867 1333 c-31 -65 -57 -121 -57 -125 0 -5 6 -8 13 -8 19 0 47 33
47 55 0 10 11 41 24 69 28 59 48 126 37 126 -4 0 -32 -53 -64 -117z"/>
<path d="M5648 1333 l-28 -4 -2 -112 c-3 -195 4 -472 12 -481 5 -4 47 -12 96
-18 66 -7 89 -6 94 3 9 13 5 280 -5 433 -12 171 -38 198 -167 179z"/>
<path d="M5626 582 c-2 -4 -1 -127 2 -275 4 -206 8 -267 18 -267 7 0 33 37 59
82 26 45 63 104 83 131 27 38 36 59 37 97 1 27 7 56 14 64 25 30 -25 85 -137
150 -23 13 -72 25 -76 18z"/>
<path d="M4507 417 c-3 -9 -2 -19 3 -22 6 -4 10 -21 10 -38 0 -18 9 -57 21
-87 12 -30 37 -103 57 -162 35 -102 39 -108 65 -108 27 0 38 22 17 35 -6 4 -8
10 -5 15 3 4 -8 37 -24 71 -15 35 -43 98 -60 139 -64 150 -77 174 -84 157z"/>
<path d="M5875 400 c-3 -5 -1 -10 4 -10 6 0 11 5 11 10 0 6 -2 10 -4 10 -3 0
-8 -4 -11 -10z"/>
</g>
</svg>
